<svg xmlns="http://www.w3.org/2000/svg" viewBox="0 0 500 500"><defs><style>.cls-1{fill:#e10;}</style></defs><title>GAS_RGB_TRed</title><g id="Icons"><path class="cls-1" d="M277.5,336.26h38.11a7.61,7.61,0,0,0,7.51-7.51,8.07,8.07,0,0,0-7.51-7.51l-128.11,0c-21.25,0-38.12-16.25-38.12-37.5S166.25,245,187.5,245H315.61a7.6,7.6,0,0,0,7.51-7.5,8.07,8.07,0,0,0-7.51-7.51H184.37a38.12,38.12,0,0,1,0-76.24H315.63a7.6,7.6,0,0,0,7.51-7.5V77.5A191.07,191.07,0,0,0,250,62.5,187.25,187.25,0,0,0,62.51,250c0,100,78.12,181.89,176.88,187.5V376.24c0-22.48,17.48-40,38.11-40Z"/><path class="cls-1" d="M353.75,92.5V145a37.87,37.87,0,0,1-38.12,38.12l-131.26,0a7.6,7.6,0,0,0-7.51,7.5,8.08,8.08,0,0,0,7.51,7.51H315.63a38.12,38.12,0,0,1,0,76.24H187.5c-4.38,0-7.51,3.74-7.51,8.12s3.75,6.88,7.51,6.88H315.61a38.12,38.12,0,1,1,0,76.23H277.49a7.6,7.6,0,0,0-7.5,7.51v60.62c94.37-8.11,167.5-88.11,167.5-185A187.52,187.52,0,0,0,353.75,92.5Z"/></g></svg>