<svg xmlns="http://www.w3.org/2000/svg" viewBox="0 0 500 500"><defs><style>.cls-1{fill-rule:evenodd;}</style></defs><title>ONC_RGB_Black</title><g id="Icons"><path class="cls-1" d="M393,228.44a30.27,30.27,0,1,1-28.54,40.28l-22.25-3.46a68.32,68.32,0,0,1-35.33,37.31l7,33.24a50.81,50.81,0,1,1-28.17,5.93l-7-33.24a67.53,67.53,0,0,1-53.75-27.05l-53.38,24.46a43.87,43.87,0,0,1,.37,5.81,47.53,47.53,0,1,1-12.35-32l53.37-24.47a70.1,70.1,0,0,1-1.6-14.58,67.15,67.15,0,0,1,10.75-36.57L193.9,176.17a41.49,41.49,0,0,1-16.68,3.59,40.65,40.65,0,1,1,40.65-40.65,39.6,39.6,0,0,1-3.58,16.68l27.93,27.92a67.89,67.89,0,0,1,60.17-6.55l29-45A43.25,43.25,0,1,1,365.65,149a44.08,44.08,0,0,1-9.88-1.11l-28.92,45a67.66,67.66,0,0,1,19.77,44L369,240.3a29.76,29.76,0,0,1,24-11.86Z"/></g></svg>