<svg xmlns="http://www.w3.org/2000/svg" viewBox="0 0 500 500"><defs><style>.cls-1{fill:#4c4948;}</style></defs><title>PLA_RGB_QGray1</title><g id="Icons"><path class="cls-1" d="M224.5,244.38c-.37.37-36,58.12-9.75,97.12,5.63,8.25,3,19.5-4.87,24.38a18.65,18.65,0,0,1-9.75,3c-5.63,0-11.63-2.63-14.63-7.88-39-58.12,7.13-132.75,9-135.75a18,18,0,0,1,24.38-5.62,18.55,18.55,0,0,1,5.62,24.75ZM250,62.5a35.41,35.41,0,0,0-30.37,17.25c-23.25,39-99.75,169.88-99.75,227.63C119.88,379,178.38,437.5,250,437.5S380.12,379,380.12,307.38c0-57.75-76.12-188.63-99.75-227.63A35.41,35.41,0,0,0,250,62.5Z"/></g></svg>