<svg xmlns="http://www.w3.org/2000/svg" viewBox="0 0 500 500"><defs><style>.cls-1{fill:#4c4948;}</style></defs><title>VAC_RGB_QGray1</title><g id="Icons"><path class="cls-1" d="M385.9,112.63,296.57,54.72c-12.76-8.84-31.41-4.91-40.25,8.83l-2.94,4.91c-8.84,12.76-4.91,31.41,8.83,40.25l1.8,1.16-33,51.49L204.3,144c-4.91-3.92-11.78-2.94-14.73,2s-1,10.79,3.93,14.72l10.69,6.93-19.83,30.62a9.46,9.46,0,0,0-.68.73c-.14.25-.16.51-.29.76l-38.84,60c0,.05-.1.08-.13.13s0,.1-.06.15L112,309.94c-14.73,22.57-7.86,53,14.72,67.73l8.59,5.49L102.21,434.6c-2.95,4.91-2,10.8,2.94,13.74s10.8,2,13.75-2.94l33.19-51.54,10,6.38c22.58,14.73,53,7.86,67.73-14.72l92-141.66L332.89,251c4.91,3.93,11.78,2.94,14.72-2,2.95-3.93,1-10.8-3.92-14.73l-28.12-18.21,33.34-51.22,2.63,1.7c13.74,8.84,32.39,4.91,40.25-9.82l2.94-3.92C403.56,140.12,399.64,121.47,385.9,112.63ZM212.15,375.7c-8.83,13.75-27.48,17.67-40.25,8.84L136.57,362c-13.75-8.83-17.67-27.48-8.84-40.24l10-15.41,42,27.19c4.91,2.94,10.8,2,13.74-2.95,2.94-3.93,2-9.82-2-13.74l-42.92-27.24,6.92-10.66L197.43,306c4.9,2.94,10.79,2,13.74-2.95s2-10.79-2-13.74l-42.79-27.15,8.4-12.94,42.24,27.33c4.91,2.95,10.8,2,13.74-2.94s2-10.8-2.94-13.75l-42.21-27.3,9.35-14.4,41.69,27c4.91,2.94,10.8,2,13.74-2.94,2.95-3.93,2-10.8-2.94-13.75l-41.66-27,15-23.08,84.06,54.47ZM300,206.07l-52.32-33.9,33-51.48L333,154.6Zm79-63L376.08,147c-2.95,4.91-8.83,5.89-13.74,2.94L273,92c-4.91-3-5.89-8.84-2.94-13.74L273,74.35c2.94-4.91,8.83-5.89,13.74-2.95l89.33,57.92C381,132.26,382,138.15,379,143.06Z"/></g></svg>