<?xml version="1.0" encoding="UTF-8"?>
<svg width="32px" height="32px" viewBox="0 0 32 32" version="1.1" xmlns="http://www.w3.org/2000/svg" xmlns:xlink="http://www.w3.org/1999/xlink">
    <title>icn_linkedin</title>
    <g id="icn_linkedin" stroke="none" stroke-width="1" fill="none" fill-rule="evenodd">
        <g id="LINKED-IN" transform="translate(1.000000, 1.000000)">
            <circle id="Oval" fill="#51B1BF" cx="15" cy="15" r="15"></circle>
            <path d="M7.9163759,11.4736842 C7.82502562,11.4900376 7.75262354,11.5738722 7.75438596,11.6616541 L7.75438596,21.8120301 C7.75438596,21.9103383 7.8493591,22 7.95367394,22 L11.3444049,22 C11.4489192,22 11.5438596,21.9103383 11.5438596,21.8120301 L11.5438596,11.6616541 C11.5438596,11.5633459 11.4489192,11.4736842 11.3444049,11.4736842 L7.9163759,11.4736842 Z M19.4035815,11.0526316 C18.0356537,11.0526316 17.2128385,11.7368421 16.596616,12.4387949 L16.596616,11.6188748 C16.596616,11.5201597 16.5073545,11.430127 16.4094849,11.430127 L13.4152012,11.430127 C13.3173317,11.430127 13.2280702,11.5201597 13.2280702,11.6188748 L13.2280702,21.8112523 C13.2280702,21.9099673 13.3173317,22 13.4152012,22 L16.596616,22 C16.6944855,22 16.783747,21.9099673 16.783747,21.8112523 L16.783747,16.1488203 C16.783747,15.632784 16.942247,15.1482686 17.1872015,14.8039927 C17.4319689,14.4597169 17.7510274,14.261343 18.0936643,14.261343 L18.4679264,14.261343 C18.8103762,14.261343 19.1294346,14.4597169 19.374202,14.8039927 C19.6191565,15.1482686 19.7778436,15.632784 19.7778436,16.1488203 L19.7778436,21.8112523 C19.7778436,21.9099673 19.866918,22 19.9649747,22 L23.1462023,22 C23.2440718,22 23.3333333,21.9099673 23.3333333,21.8112523 L23.3333333,15.2050817 C23.3333333,13.9708603 23.0984839,12.928784 22.4736533,12.1909691 C21.8488228,11.453343 20.8474846,11.0526316 19.4035815,11.0526316 L19.4035815,11.0526316 Z M9.43878788,6 C8.27821372,6 7.33333333,6.94488038 7.33333333,8.10526316 C7.33333333,9.26564593 8.27821372,10.2105263 9.43878788,10.2105263 C10.5991707,10.2105263 11.5438596,9.26564593 11.5438596,8.10526316 C11.5438596,6.94488038 10.5991707,6 9.43878788,6 L9.43878788,6 Z" id="Fill-1" fill="#FFFFFF"></path>
        </g>
    </g>
</svg>