<svg aria-hidden="true"  version="1.1" xmlns="http://www.w3.org/2000/svg" xmlns:xlink="http://www.w3.org/1999/xlink">
<defs>
    <symbol id="takui-ico-chev-down">
        <path d="M0.7,10.4c0-2.6,1-5.1,2.9-7.1c3.9-3.9,10.3-3.9,14.2,0l30.4,30.3L78.6,3.2c3.9-3.9,10.3-3.9,14.2,0c3.9,3.9,3.9,10.3,0,14.2L55.3,54.9c-1.9,1.9-4.4,2.9-7.1,2.9s-5.2-1.1-7.1-2.9L3.6,17.5C1.7,15.5,0.7,12.9,0.7,10.4z"/>
    </symbol>
    <symbol id="takui-ico-home" viewBox="0 0 91.4 91.1">
        <path d="M88.5,29.2l-40-28c-1.7-1.2-4-1.2-5.7,0l-40,28c-1.3,0.9-2.1,2.5-2.1,4.1v52c0,2.8,2.2,5,5,5h27c2.8,0,5-2.2,5-5v-30h16v30c0,2.8,2.2,5,5,5h27c2.8,0,5-2.2,5-5v-52C90.7,31.7,89.9,30.2,88.5,29.2z M80.7,80.3h-17v-30c0-2.8-2.2-5-5-5h-26c-2.8,0-5,2.2-5,5v30h-17V35.9l35-24.5l35,24.5V80.3z"/>
    </symbol>
    <symbol id="takui-ico-login" viewBox="0 0 92.5 91.7" >
        <path d="M34.8,63.7L34.8,63.7c2,2,5.1,2,7.1,0l10.6-10.6l3.5-3.5c2-2,2-5.1,0-7.1L52.5,39L41.8,28.3c-2-2-5.1-2-7.1,0l0,0c-2,2-2,5.1,0,7.1l5.6,5.6H6.5c-2.8,0-5,2.2-5,5l0,0c0,2.8,2.2,5,5,5h33.9l-5.6,5.6C32.8,58.6,32.8,61.7,34.8,63.7z"/>
        <path d="M11.5,5v22c0,2.2,1.8,4,4,4h2c2.2,0,4-1.8,4-4V13c0-1.1,0.9-2,2-2h56c1.1,0,2,0.9,2,2v66c0,1.1-0.9,2-2,2h-56c-1.1,0-2-0.9-2-2V65c0-2.2-1.8-4-4-4h-2c-2.2,0-4,1.8-4,4v22c0,2.2,1.8,4,4,4h72c2.2,0,4-1.8,4-4V5c0-2.2-1.8-4-4-4h-72C13.3,1,11.5,2.8,11.5,5z"/>
    </symbol>
    <symbol id="takui-ico-contactus" viewBox="0 0 66.3 59.8">
        <path  d="M53.2,1h-40c-6.6,0-12,5.4-12,12v34c0,6.6,5.4,12,12,12h40c6.6,0,12-5.4,12-12V13C65.2,6.4,59.8,1,53.2,1zM57.2,47c0,2.2-1.8,4-4,4h-40c-2.2,0-4-1.8-4-4V25.9L30.4,38c1.7,1.1,3.8,1.1,5.4,0l21.3-12.1V47z M57.2,16.7l-24,13.6l-24-13.6V13c0-2.2,1.8-4,4-4h40c2.2,0,4,1.8,4,4V16.7z"/>
    </symbol>
    <symbol id="takui-ico-video-tutorial" viewBox="0 0 20 14.6">
        <path d="M20,4.8c-0.1-0.8-0.6-0.9-0.6-0.9l0,0l-9-3.5c-0.3-0.1-0.5-0.1-0.8,0l-9,3.5C0.3,4,0,4.4,0,4.8s0.3,0.8,0.6,0.9L4,7v6.3c0,0.6,0.4,1,1,1h10c0.6,0,1-0.4,1-1V7l2-0.7v4c0,0.6,0.4,1,1,1s1-0.4,1-1V4.8L20,4.8z M14,12.3H6V7.8l3.6,1.4C9.8,9.3,9.9,9.3,10,9.3s0.2,0,0.4-0.1L14,7.8V12.3z M10,7.2L3.8,4.8L10,2.4l6.2,2.4L10,7.2z"/>
    </symbol>
    <symbol id="takui-ico-user" viewBox="0 0 516.6 604.8">
        <path d="M258.3,0c72.9,0,132,59.1,132,132c0,72.9-59.1,132-132,132c-72.9,0-132-59.1-132-132C126.3,59.1,185.4,0,258.3,0L258.3,0z M112.8,280.2h291c62.1,0,112.8,50.7,112.8,112.8v210.9H0V393C0,330.9,50.7,280.2,112.8,280.2z M403.8,334.1h-291c-32.4,0-59,26.6-59,59v157.1h408.9V393C462.8,360.6,436.2,334.1,403.8,334.1z M258.3,53.8c-43.2,0-78.2,35-78.2,78.2c0,43.2,35,78.2,78.2,78.2c43.2,0,78.2-35,78.2-78.2C336.5,88.8,301.5,53.8,258.3,53.8z"/>
    </symbol>
    <symbol id="takui-ico-check"  viewBox="0 0 516.6 604.8">
        <path d="M98,129c-13-12-34-34-48-48c-14-13-23-2-40,16c-19,19,0,29,27,56l49,49c18,16,33-8,57-31l98-99c31-30,38-30,13-54c-22-23-21-23-56,13C182,46,103,126,98,129z"/>
    </symbol>
    <symbol id="takui-ico-chev-left" viewBox="0 0 320 512">
        <path fill="currentColor" d="M34.52 239.03L228.87 44.69c9.37-9.37 24.57-9.37 33.94 0l22.67 22.67c9.36 9.36 9.37 24.52.04 33.9L131.49 256l154.02 154.75c9.34 9.38 9.32 24.54-.04 33.9l-22.67 22.67c-9.37 9.37-24.57 9.37-33.94 0L34.52 272.97c-9.37-9.37-9.37-24.57 0-33.94z" class=""></path>
    </symbol>
</defs>
</svg>