<svg xmlns="http://www.w3.org/2000/svg" viewBox="0 0 500 500"><defs><style>.cls-1{fill:#4c4948;}</style></defs><title>NEU_RGB_QGray1</title><g id="Icons"><path class="cls-1" d="M461.66,217.17c0-26.88-16-38-23.21-41.71-1.17-9.85-5.28-30-20.56-41.13-16.6-12.05-31.29-15-39.81-15.43-3.37-9-11.75-23.35-32.6-31.72-24.39-9.7-41.57-6-50.68-2.06-7.05-9.4-22-22.62-50.53-22.62-24.68,0-39.22,10.87-46.27,18.36a75.16,75.16,0,0,0-22.47-3.38c-12.78-.14-43.63,2.35-60.22,29.23-7.79.15-20,3.23-36.14,15.72-21.15,16.16-20.27,37.16-18.8,46-7,4.12-22,15-22,35.7,0,25.85,16.15,38.19,23.65,42.6-1.33,8.37-1.77,27.76,19.24,41,17.48,10.87,32.9,9.4,42,6.75v.3c4.26,15.13,15.71,26.73,32.17,32.75,13.22,4.85,27.61,5.14,39.21,1,4.7,4.85,11.61,8.52,20.57,10.87,5.43,3.23,28.49,17.77,43,43a151.23,151.23,0,0,1,13.51,30.26c2.35,7.05,4.55,13.07,10,17.77a30.48,30.48,0,0,0,19.68,7.05,33.37,33.37,0,0,0,18.95-6c2.79-1.91,10.87-7.64,12.48-53a121,121,0,0,0,12.34.74c25,0,45.39-9.11,60.52-27.18a79.85,79.85,0,0,0,18.36-44.8,12.8,12.8,0,0,0,1.47-.59c21.74-10.28,26-31.14,22.77-47.88C453.73,252.86,461.66,240.53,461.66,217.17Zm-36.13,12.05a9.86,9.86,0,0,0-6.32,3.81,9.71,9.71,0,0,0-1.76,7.2,9.83,9.83,0,0,0,3.82,6.32c1.91,1.47,4.85,7,6.17,11.31l.15.29.14.15c1.32,3.82,6.47,22.33-11,30.55-19,8.81-35.26,1.32-43-3.67a174.09,174.09,0,0,0,5.14-21,41.78,41.78,0,0,0,9.4-4.11c22.33-13.66,19.24-38.92,19.09-39.95a9.62,9.62,0,0,0-19.09,2.35c.15.59,1.47,14.1-10,21.15-8.66,5.29-25,3.09-30,1.91a9.6,9.6,0,0,0-7.2,1.18,10.06,10.06,0,0,0-4.41,6,10,10,0,0,0,1.18,7.34,9.4,9.4,0,0,0,5.87,4.41A90.66,90.66,0,0,0,359,266.38c-2.64,12.78-5,17.33-5,17.33-.15.29-.15.44-.3.73l-.29.45c-.3.73-7.64,17.77-31,18.5-23.5.88-30.4-7.78-30.84-8.52a.52.52,0,0,0-.15-.29c-.15-.15-.15-.29-.29-.44s-2.79-4.55-5.58-15.86a9.54,9.54,0,0,0-17.48-2.5,9.84,9.84,0,0,0-1,7.34,103.22,103.22,0,0,0,5.43,16.6c-4.11,7.49-14,21.74-28.93,22.92-11,.88-25.27-.74-32.61-5.44a51.71,51.71,0,0,0,9.4-14.84,9.65,9.65,0,0,0-4.7-12.77,9.81,9.81,0,0,0-7.35-.3,9.16,9.16,0,0,0-5.43,5c-4.26,9.4-10.28,13.8-10.87,14.24l-.29.15c-6.47,4.41-19.54,5-30.41,1-6-2.2-16.74-7.64-20.12-19.83-7.49-27,14.1-34.67,18.51-36a9.31,9.31,0,0,0,6-5,9.6,9.6,0,0,0,.29-7.79,42.12,42.12,0,0,1-2.2-13.36c.14-9.26,3.52-16.6,10.43-21.6,11.6-8.51,23.35-8.51,40.24.15a9.94,9.94,0,0,0,9.7-.59,9.68,9.68,0,0,0,4.4-8.66c-.14-1.77-.29-17,22.77-20.71,27.32-4.41,37.46,11.89,37.9,12.48a9.37,9.37,0,0,0,5.87,4.41A9.73,9.73,0,0,0,306,179c-.73-1.17-17-28.35-57.58-21.89-24.38,3.82-33.49,18.07-36.72,26.59-18.21-6.32-34.07-4.11-48.76,6.61-20.57,15.13-19,38.63-17.19,48.47a50.63,50.63,0,0,0-14.83,11.61,25.9,25.9,0,0,1-10.58-17.63c-2.2-17.48,12.93-24.38,13.51-24.68a9.53,9.53,0,0,0,5.73-7.34,9.86,9.86,0,0,0-3.23-8.81c-.73-.59-6.9-6.47.73-17.48,7.2-10.43,20.86-6.47,21-6.47a9.66,9.66,0,0,0,7.78-1,9.53,9.53,0,0,0,4.41-6.47c.44-2.35,3.38-14.1,16.31-14.83,9.54-.44,13.8,1.61,14.83,2.2a9.61,9.61,0,0,0,13.22-14c-2.06-2.06-10.13-8.52-29.23-7.49S157.61,140.5,154.08,148c-9-.44-23.35,1.47-33.05,15.42-9.84,14.25-7.78,26.15-4.7,33.05-6.75,5.58-17.92,18.21-15.27,38.78,2.2,16.89,13.07,27.17,20.56,32.31a32.67,32.67,0,0,0-1.32,7.35c-4.26,1.91-15.57,5.43-29.67-3.38-2.65-1.76-15.57-10.72-9.26-25.85a17.6,17.6,0,0,0,.74-2.06c.15-.44,1.47-3.67,6.61-7.34a9.62,9.62,0,0,0,2.2-13.37,9.82,9.82,0,0,0-6.31-4,9.63,9.63,0,0,0-7.2,1.62,46.77,46.77,0,0,0-8.67,8.22c-5.29-3.67-12-10.86-12-24.67,0-9,5.14-14.54,10.28-17.78a38.13,38.13,0,0,0,7.64,8.38,10,10,0,0,0,6,2.05,9.53,9.53,0,0,0,7.49-3.67A9.37,9.37,0,0,0,90.19,186a9.53,9.53,0,0,0-3.53-6.46c-4.11-3.38-6.31-9.11-6.46-9.26s-.15-.14-.15-.29l-.14-.29c-.3-.74-7.79-18.51,10.13-32.32,7.93-6.17,14.1-9.11,18.51-10.57a68.18,68.18,0,0,0,.15,9.54,9.49,9.49,0,0,0,9.54,8.82H119a9.68,9.68,0,0,0,8.81-10.43c-.88-10.28,1.18-15,1.32-15.43,1.77-4,12.63-23.5,45.1-23.06,13.36.15,19.53,3.68,20.12,4l.15.15.14.14c.15.15.3.15.44.3a54.11,54.11,0,0,1,12.49,10.43,10,10,0,0,0,7.2,3.23,9.6,9.6,0,0,0,6.46-2.5,9.72,9.72,0,0,0,.73-13.66A95.23,95.23,0,0,0,214,90.85c5.73-4.7,14.84-9.4,29.09-9.4,20.12,0,30.25,8.37,35.1,14.69a50.58,50.58,0,0,0-11.6,23.06,44.68,44.68,0,0,0-13.22,11,9.58,9.58,0,0,0,9.11,15.28,9.11,9.11,0,0,0,6.31-3.67c.44-.59,9.7-12.19,29.67-9.84,19.1,2.35,23.21,12.48,23.36,12.78a9.61,9.61,0,0,0,9.1,6.61c5.59,0,11.31,2.93,15.43,7.78,5,5.88,7.05,14,5.58,22.77-3.09,18.8-17.92,18.51-20.71,18.21a9.4,9.4,0,0,0-7.2,2.21,9.16,9.16,0,0,0-3.38,6.75c0,.59-.88,14.54-13.66,18.51-19.68,6.17-32.61-6-33.05-6.46a9.54,9.54,0,0,0-9.55-2.35,9.65,9.65,0,0,0-6.61,7.34c0,.29-4.7,21.3-18.21,25.27-21.15,6.16-31.43-6.47-31.87-6.91a9.63,9.63,0,0,0-13.52-1.76,9.74,9.74,0,0,0-1.76,13.51,46.4,46.4,0,0,0,35.84,16.16A61.57,61.57,0,0,0,245,269.9c14.54-4.26,22.91-16.3,27.46-26.88A52.78,52.78,0,0,0,313,246c16.6-5.29,23.07-18.36,25.56-27,8.67-1.32,28.35-7.19,32.76-33.93,2.49-14.54-1-28.2-9.84-38.48a33.75,33.75,0,0,0-5.14-5.14A35.85,35.85,0,0,1,370,137.85c.44,0,.73-.14,1.17-.14h.59c.15,0,15-2.35,34.22,11.75,6.91,5,10.14,14.24,11.61,21a47.29,47.29,0,0,0-13.37,1,9.39,9.39,0,0,0-5.88,4.41,9.83,9.83,0,0,0-1,7.34,9.37,9.37,0,0,0,4.4,5.88,9.86,9.86,0,0,0,7.35,1c4.84-1.17,13.66.3,17.33,1.18,1.76.44,15.42,4.55,15.42,25.56,0,9.1-1.47,15.57-3.23,20.12a28.82,28.82,0,0,0-5.87-6A9.67,9.67,0,0,0,425.53,229.22ZM258.37,338.79a112.76,112.76,0,0,0,55.53,36c-.74,21-3.09,37.75-5.15,41.42-4.7,2.94-10.57,2.79-14.39-.44-1.47-1.17-2.5-4.11-4.26-9.25A178.43,178.43,0,0,0,275,372.87a138.64,138.64,0,0,0-25.56-31.58A58.84,58.84,0,0,0,258.37,338.79Zm27.32-23.94c7.05,4.26,18.8,8.52,37.46,7.93,22.62-.73,35.55-12,42-20.27,8.08,4.85,21.74,11,38.48,9.7a61.18,61.18,0,0,1-12.92,27.32c-13.52,16.15-32,22.62-56.55,19.68a94.16,94.16,0,0,1-59.79-31A68.38,68.38,0,0,0,285.69,314.85Zm51.56-183.17c-4.85-6.61-15.13-16-35.4-18.5a62.73,62.73,0,0,0-7.49-.45,25.39,25.39,0,0,1-3.38,0,26.9,26.9,0,0,1,6-6.75l1-.74c.15-.14,13.07-11,40.25-.29,10.72,4.26,16.45,10.58,19.53,16A55.55,55.55,0,0,0,337.25,131.68Z"/></g></svg>