<?xml version="1.0" encoding="UTF-8"?>
<svg width="32px" height="32px" viewBox="0 0 32 32" version="1.1" xmlns="http://www.w3.org/2000/svg" xmlns:xlink="http://www.w3.org/1999/xlink">
    <title>icn_youtube</title>
    <g id="icn_youtube" stroke="none" stroke-width="1" fill="none" fill-rule="evenodd">
        <g id="YOUTUBE" transform="translate(1.000000, 1.000000)">
            <circle id="Oval" fill="#51B1BF" cx="15" cy="15" r="15"></circle>
            <path d="M13.3284146,17.516129 L13.3284146,12.483871 L17.9251697,14.9999869 L13.3284146,17.516129 Z M23.814625,10.6782557 C23.602737,9.90848984 22.9816823,9.30169257 22.1941194,9.09440577 C20.7552486,8.70967742 14.999765,8.70967742 14.999765,8.70967742 C14.999765,8.70967742 9.24448281,8.70967742 7.80564068,9.07982038 C7.0332045,9.28688236 6.39699431,9.90860225 6.18510639,10.6782557 C5.80645161,12.0842425 5.80645161,15 5.80645161,15 C5.80645161,15 5.80645161,17.9305115 6.18510639,19.3217724 C6.39722438,20.0914259 7.01804911,20.6982231 7.80575571,20.9055099 C9.2596382,21.2903226 14.9999951,21.2903226 14.9999951,21.2903226 C14.9999951,21.2903226 20.7552486,21.2903226 22.1941194,20.9202077 C22.9817973,20.7130333 23.602737,20.1062361 23.814855,19.3365827 C24.1934721,17.9305115 24.1934721,15.0148102 24.1934721,15.0148102 C24.1934721,15.0148102 24.2085502,12.0842425 23.814625,10.6782557 L23.814625,10.6782557 Z" id="Fill-1" fill="#FFFFFF"></path>
        </g>
    </g>
</svg>