<?xml version="1.0" encoding="utf-8"?>
<!-- Generator: Adobe Illustrator 25.0.1, SVG Export Plug-In . SVG Version: 6.00 Build 0)  -->
<svg version="1.0" id="Layer_1" xmlns="http://www.w3.org/2000/svg" xmlns:xlink="http://www.w3.org/1999/xlink" x="0px" y="0px"
	 viewBox="0 0 216 216" style="enable-background:new 0 0 216 216;" xml:space="preserve">
<style type="text/css">
	.st0{fill:#EE1100;}
	.st1{fill:#EE1100;stroke:#FFFFFF;stroke-width:0.5;stroke-miterlimit:10;}
	.st2{fill:none;stroke:#34373F;stroke-width:1.6798;}
	.st3{fill:#D0D2D5;}
	.st4{fill:none;stroke:#34373F;stroke-width:1.6798;stroke-miterlimit:10;}
	.st5{fill:none;stroke:#34373F;stroke-width:1.6798;stroke-linecap:round;stroke-miterlimit:10;}
	.st6{fill:#E1242A;}
	.st7{fill:none;stroke:#E1242A;stroke-width:1.6798;stroke-linecap:round;stroke-linejoin:round;}
	.st8{fill:#FFFFFF;}
	.st9{fill:none;stroke:#E1242A;stroke-width:1.6798;stroke-miterlimit:10;}
</style>
<g>
	<circle class="st2" cx="108" cy="108" r="60.47"/>
	<path class="st3" d="M84.46,101.08h15.73c1.52,0,2.74,1.38,2.74,3.08v21.24c0,1.7-1.23,3.08-2.74,3.08H84.46"/>
	<path class="st4" d="M84.46,101.08h15.73c1.52,0,2.74,1.38,2.74,3.08v21.24c0,1.7-1.23,3.08-2.74,3.08H84.46"/>
	<path class="st5" d="M127.91,106.02v-8.85c0-4.54-2.73-8.67-7.06-10.92c-2.81-1.46-5.38-4.15-5.38-9.07H96.9
		c0,4.92-2.57,7.61-5.38,9.07c-4.33,2.25-7.06,6.38-7.06,10.92v44.57c0,2.76,2.46,5,5.48,5h15.91h0.66h15.91
		c3.03,0,5.49-2.24,5.49-5v-8.31"/>
	<path class="st6" d="M134.47,126.21l-7.79,7.79c-3.62,3.62-9.5,3.62-13.12,0c-3.62-3.62-3.62-9.5,0-13.12l7.79-7.79L134.47,126.21z
		"/>
	<path class="st4" d="M121.35,113.08l13.12,13.12 M142.26,105.29c-3.62-3.62-9.5-3.62-13.12,0l-15.59,15.59
		c-3.62,3.62-3.62,9.5,0,13.12c3.62,3.62,9.5,3.62,13.12,0l15.59-15.59C145.88,114.79,145.88,108.91,142.26,105.29z"/>
	<path class="st3" d="M121.51,80.01H90.86v-8c0-1.51,1.23-2.74,2.74-2.74h25.16c1.52,0,2.74,1.23,2.74,2.74V80.01z"/>
	<path class="st4" d="M121.51,80.01H90.86v-8c0-1.51,1.23-2.74,2.74-2.74h25.16c1.52,0,2.74,1.23,2.74,2.74V80.01z"/>
</g>
</svg>
