<?xml version="1.0" encoding="utf-8"?>
<!-- Generator: Adobe Illustrator 25.0.1, SVG Export Plug-In . SVG Version: 6.00 Build 0)  -->
<svg version="1.0" id="Layer_1" xmlns="http://www.w3.org/2000/svg" xmlns:xlink="http://www.w3.org/1999/xlink" x="0px" y="0px"
	 viewBox="0 0 216 216" style="enable-background:new 0 0 216 216;" xml:space="preserve">
<style type="text/css">
	.st0{fill:#EE1100;}
	.st1{fill:#EE1100;stroke:#FFFFFF;stroke-width:0.5;stroke-miterlimit:10;}
	.st2{fill:none;stroke:#34373F;stroke-width:1.6798;}
	.st3{fill:#D0D2D5;}
	.st4{fill:none;stroke:#34373F;stroke-width:1.6798;stroke-miterlimit:10;}
	.st5{fill:none;stroke:#34373F;stroke-width:1.6798;stroke-linecap:round;stroke-miterlimit:10;}
	.st6{fill:#E1242A;}
	.st7{fill:none;stroke:#E1242A;stroke-width:1.6798;stroke-linecap:round;stroke-linejoin:round;}
	.st8{fill:#FFFFFF;}
	.st9{fill:none;stroke:#E1242A;stroke-width:1.6798;stroke-miterlimit:10;}
</style>
<g>
	<circle class="st2" cx="108" cy="108" r="60.47"/>
	<rect x="93.67" y="102.34" class="st3" width="13.48" height="36.35"/>
	<rect x="123.75" y="89.92" class="st3" width="13.48" height="48.77"/>
	<path class="st4" d="M71,137.62h74 M137.33,137.62h-14.66V90.6h14.66V137.62z M122.66,137.62H108v-29.28h14.66V137.62z M108,137.62
		H93.34V101.8H108V137.62z M93.34,137.62H78.67v-21.81h14.66V137.62z"/>
	<polyline class="st7" points="78.67,101.8 98.07,80.94 111.18,92.49 126.47,73.7 	"/>
	<polygon class="st6" points="128.76,77.03 129.99,69.37 122.74,72.13 	"/>
	<polygon class="st9" points="128.76,77.03 129.99,69.37 122.74,72.13 	"/>
</g>
</svg>
