<svg aria-hidden="true"  version="1.1" xmlns="http://www.w3.org/2000/svg" xmlns:xlink="http://www.w3.org/1999/xlink">
<defs>
    <symbol id="article-link">
        <defs>
    <filter id="Filter_0">
        <feFlood  flood-opacity="1" result="floodOut" />
        <feComposite operator="atop" in="floodOut" in2="SourceGraphic" result="compOut" />
        <feBlend mode="normal" in="compOut" in2="SourceGraphic" />
    </filter>
    <filter id="Filter_1">
        <feFlood  flood-opacity="1" result="floodOut" />
        <feComposite operator="atop" in="floodOut" in2="SourceGraphic" result="compOut" />
        <feBlend mode="normal" in="compOut" in2="SourceGraphic" />
    </filter>
    </defs>
        <g>
            <path fill-rule="evenodd"
            d="M0.926,17.007 L13.908,17.007 L13.908,17.007 C14.418,17.007 14.835,16.589 14.835,16.078 L14.835,8.642 L12.981,8.642 L12.981,15.148 L1.853,15.148 L1.853,3.995 L8.344,3.995 L8.344,2.136 L0.926,2.136 L0.926,2.136 C0.416,2.136 -0.002,2.554 -0.002,3.065 L-0.002,16.078 C-0.002,16.589 0.416,17.007 0.926,17.007 Z"/>
        </g>
        <g filter="url(#Filter_1)">
            <path fill-rule="evenodd"
                d="M7.162,8.549 L8.460,9.850 L14.464,3.855 L14.464,5.877 L16.319,5.877 L16.319,0.695 L11.126,0.695 L11.126,2.554 L13.143,2.554 L7.162,8.549 Z"/>
        </g>
    </symbol>
    <symbol id="takui-takeda-logo" viewBox="0 0 500 168">
        <g
     transform="matrix(1.25,0,0,-1.25,-361.7335,223.03972)"
     id="g12"><path
       d="m 488.86872,178.20293 c -130.36583,0 -199.48192,-92.498414 -199.48192,-92.498414 l 28.33051,-19.142524 c 0,0 3.42568,8.580038 11.27617,20.85536 0.0317,-3.07676 0.45464,-5.223092 0.45464,-5.223092 5.00635,-38.866567 42.76803,-37.930852 42.76803,-37.930852 l 234.09283,0 c 0,0 38.26391,-1.052019 43.25968,37.788116 0,0 0.40706,2.003595 0.4282,5.059209 7.69191,-11.968703 11.07528,-20.289701 11.07528,-20.289701 l 28.31466,18.941636 c 0,0 -70.16283,92.440262 -200.51808,92.440262"
       id="path1196"
       style="fill:#ed1c24;fill-opacity:1;fill-rule:nonzero;stroke:none" /><path
       d="m 643.77779,82.637779 c 0,0 -5.1015,-29.720871 -37.95728,-29.720871 l -233.71221,0 c -32.85049,0 -37.47621,29.995771 -37.47621,29.995771 -1.26348,7.961514 0.2749,13.411926 2.73314,17.181221 23.65722,31.14295 70.46944,72.96997 151.40093,72.96997 81.61874,0 128.82745,-42.42969 152.4741,-73.57792 2.73313,-3.47325 3.75872,-9.14041 2.53753,-16.848171"
       id="path1200"
       style="fill:#ffffff;fill-opacity:1;fill-rule:nonzero;stroke:none" /><path
       d="m 420.60846,115.03843 3.90146,8.358 -49.99471,0 -3.92261,-8.358 19.36985,0 -20.05181,-40.775005 12.94671,0 20.04123,40.775005 17.70988,0 z"
       id="path1204"
       style="fill:#ed1c24;fill-opacity:1;fill-rule:nonzero;stroke:none" /><path
       d="m 601.15514,87.790004 c -3.71643,-5.233665 -8.98181,-7.887503 -11.76782,-5.91034 -2.78071,1.982448 -2.01416,7.824064 1.70227,13.057728 3.71643,5.233668 8.99238,7.892788 11.76781,5.915628 2.79129,-1.987736 2.01417,-7.829351 -1.70226,-13.063016 m -43.75661,0.200888 c -3.73757,-5.244238 -9.00296,-7.887502 -11.78367,-5.91034 -2.76486,1.977162 -2.02474,7.818777 1.70226,13.063015 3.73229,5.233663 9.00825,7.882213 11.7731,5.910343 2.76486,-1.977165 2.02474,-7.829353 -1.69169,-13.063018 m -54.37724,3.806302 c 0,0 2.42123,8.125396 10.25586,11.376616 0,0 2.23092,0.75597 3.42567,-0.22204 0,0 1.67583,-1.61239 -0.31719,-4.599279 -1.78684,-2.664411 -6.07951,-7.485727 -10.73694,-9.108691 0,0 -4.22394,-1.844999 -2.6274,2.553394 m -76.33221,-3.806302 c -3.73758,-5.244238 -8.99239,-7.887502 -11.76782,-5.91034 -2.78071,1.977162 -2.03531,7.818777 1.68112,13.063015 3.727,5.233663 9.00296,7.882213 11.77839,5.910343 2.79129,-1.977165 2.01417,-7.829353 -1.69169,-13.063018 M 613.6102,81.62591 c 0,0 -2.52167,-1.17361 -3.60541,-0.04229 -1.08374,1.120744 -0.1163,3.208924 -0.1163,3.208924 l 10.56248,22.208706 -10.76866,0 -1.64939,-2.96574 c -6.29098,5.535 -18.12223,2.67498 -25.44936,-4.985195 -4.23451,-4.414253 -6.62931,-9.653204 -6.95179,-14.210193 -1.20004,-0.792979 -3.20363,-2.003595 -5.78346,-3.018608 0,0 -2.52696,-1.184183 -3.62127,-0.04229 -1.08374,1.120744 -0.10573,3.219496 -0.10573,3.219496 l 18.75132,38.59166 -10.75809,0 -9.84881,-19.35398 c -6.29097,5.52442 -18.11165,2.67498 -25.45464,-4.985195 -1.48551,-1.5701 -2.73313,-3.21421 -3.76929,-4.9059 l 0.0106,0.03701 c -0.0687,-0.13745 -0.14274,-0.285473 -0.21675,-0.41235 -0.23789,-0.401776 -0.46521,-0.787693 -0.66081,-1.178896 -5.85219,-10.139564 -13.13174,-11.820681 -13.13174,-11.820681 -15.38381,-4.599281 -17.13893,2.934025 -17.13893,2.934025 17.2288,6.370268 23.7048,13.914146 23.10742,19.687037 -0.58152,5.77818 -8.51131,6.07951 -8.51131,6.07951 -13.0313,0.78241 -24.31276,-8.33157 -27.05118,-17.249948 -0.8247,-2.717276 -1.08374,-5.508564 -0.57623,-8.051385 -5.21781,-2.780715 -8.22055,-3.224783 -8.22055,-3.224783 -4.33496,-1.369211 -4.87418,0.687249 -5.38698,1.940156 -0.52865,1.284627 -2.48995,12.381053 -2.48995,12.381053 l 18.29668,11.968707 -11.19159,0 -13.74498,-8.521889 c -3.0979,-1.284627 -1.89786,1.971879 -1.89786,1.971879 l 11.2233,22.7215 -10.77923,0 -18.20681,-36.889404 c -2.09347,-1.258194 -6.28568,-3.689997 -9.3413,-4.895326 0,0 -2.52167,-1.184183 -3.60541,-0.04229 -1.10489,1.120744 -0.12159,3.219496 -0.12159,3.219496 l 10.57306,22.203424 -10.77395,0 -1.6494,-2.96574 c -6.28568,5.52442 -18.12222,2.67498 -25.44935,-4.985199 -7.34299,-7.665469 -9.21442,-17.773314 -4.19222,-22.578769 4.01248,-3.843308 11.23388,-3.12434 17.71516,1.237048 0,0 1.63354,1.406217 2.52168,-0.237894 0.91457,-1.712836 4.62571,-5.582576 13.17403,-2.20977 2.74371,1.073166 5.20194,2.310214 7.31127,3.47325 l -2.23092,-4.514696 10.75809,0 5.39755,10.906111 4.68915,2.986889 c 0,0 1.43794,1.131318 2.0036,-1.284626 0,0 2.33136,-9.182703 3.23007,-10.366885 0.90928,-1.200043 2.7067,-3.912033 10.27701,-1.739269 5.79932,1.67583 11.20216,3.727004 14.06217,4.948192 2.53225,-3.499683 7.39057,-5.862761 15.39437,-5.862761 11.79954,0 20.14697,5.63544 23.6678,8.569465 0.25375,-2.336647 1.15246,-4.38782 2.74371,-5.905054 4.00719,-3.843308 11.2233,-3.12434 17.6993,1.237048 0,0 1.63882,1.406217 2.53753,-0.237894 0.91986,-1.712836 4.61514,-5.582576 13.17404,-2.20977 3.92789,1.548954 6.55001,3.029182 8.27342,4.181645 0.46521,-1.215901 1.14717,-2.278494 2.07232,-3.177204 4.02833,-3.827448 11.23387,-3.119053 17.70987,1.252908 0,0 1.64411,1.411503 2.54282,-0.248467 0.904,-1.712836 4.62572,-5.587862 13.16346,-2.204483 8.55889,3.367519 11.00656,6.423133 11.00656,6.423133 l -2.15691,3.806302 c -0.30133,-0.169169 -2.93402,-2.257348 -7.04166,-3.86974"
       id="path1208"
       style="fill:#ed1c24;fill-opacity:1;fill-rule:nonzero;stroke:none" /></g>
    </symbol>
    <symbol id="takui-takeda-logo-bg" viewBox="0 0 172.3 58">
        <path class="ast0" d="M18.4 39.1c-1.9 2.6-3.5 5.7-5.2 8.5L1.5 39.9C23.9 13.9 54.6 1 85.8 1c31.7 0 64.6 14.8 85 38.7l-11.6 7.9c-2.1-3.2-3.3-6.6-5.5-9.5 0 1.1.6 16.4-15.4 18.9L34 56.9c-15.2-1.7-15.3-17.6-15.6-17.8m133.5-.6s0-3.3-2.5-5.5c-14.6-17.4-36-30.1-63.2-30.1-25.5 0-46.8 10.6-63.2 30.8-2.5 2.4-2.1 5.8-2.1 5.8.4 4.7 3 13.2 14.6 14.3h101.8c12.3-1.1 14.3-10.4 14.6-15.3z" fill="#fff"/>
        <path class="ast1" d="M18.4 39.1c-1.9 2.6-3.5 5.7-5.2 8.5L1.5 39.9C23.9 13.9 54.6 1 85.8 1c31.7 0 64.6 14.8 85 38.7l-11.6 7.9c-2.1-3.2-3.3-6.6-5.5-9.5 0 1.1.6 16.4-15.4 18.9L34 56.9c-15.2-1.7-15.3-17.6-15.6-17.8m133.5-.6s0-3.3-2.5-5.5c-14.6-17.4-36-30.1-63.2-30.1-25.5 0-46.8 10.6-63.2 30.8-2.5 2.4-2.1 5.8-2.1 5.8.4 4.7 3 13.2 14.6 14.3h101.8c12.3-1.1 14.3-10.4 14.6-15.3z" fill="none" stroke="#fff" stroke-width="2.035"/>
        <path class="ast2" d="M18.4 39.1c-1.9 2.6-3.5 5.7-5.2 8.5L1.5 39.9C23.9 13.9 54.6 1 85.8 1c31.7 0 64.6 14.8 85 38.7l-11.6 7.9c-2.1-3.2-3.3-6.6-5.5-9.5 0 1.1.6 16.4-15.4 18.9L34 56.9c-15.2-1.7-15.3-17.6-15.6-17.8m133.5-.6s0-3.3-2.5-5.5c-14.6-17.4-36-30.1-63.2-30.1-25.5 0-46.8 10.6-63.2 30.8-2.5 2.4-2.1 5.8-2.1 5.8.4 4.7 3 13.2 14.6 14.3h101.8c12.3-1.1 14.3-10.4 14.6-15.3z" fill="#e4412b"/>
        <path class="ast0" d="M152.1 38.4s0-3.3-2.5-5.5C135 15.5 113.6 2.8 86.4 2.8c-25.6 0-47 10.5-63.4 30.7-2.8 2.7-2.3 5.9-2.3 5.9.4 4.7 2.8 13.5 14.8 14.6h101.7c12.4-1.2 14.6-10.8 14.9-15.6" fill="#fff"/>
        <path class="ast2" d="M68.4 39.4c1-1.4 1.6-2.5 3.3-5.8l4.1-9.2h4.8l-4.3 9.4-.8 1.7 7.2-4.4h4.9l-8.2 5.5.5 1.7s.9 3.1 1.1 3.2c0 0 .3 1.5 2.8.4 0 0 2.4-.8 2.9-1.2 0 0-2.2-5.6 7.2-9.7 0 0 5.9-2 7.6 1 0 0 1 1.8-.8 3.7 0 0-.6 1-3.5 2.5-1.8.9-2.8 1.4-4.2 2.2l-1 .5c.1.2.7.9 1.3 1.2 0 0 2.3 1.6 7-.7 0 0 3.1-1.8 4.1-3.5 1.2-3 4.9-6.8 8.8-6.9 1.8-.1 2.8-.3 4.5 1.7h.1c.2-.7.7-1.2 1-1.9l3.1-6.2h4.3l-7.6 15.7s-1.3 2.3 1.7 1.4c0 0 1.7-.9 2.2-2.1.3-.5.5-.8.6-.9 1.6-3.8 4.7-7.1 9-7.3.7 0 3.3-.3 4.2 1.7l.7-1 .2-.6h4.1l-4.5 9.4s-.2 1.1.4 1.4c0 0 1 .9 4.5-2.1 0 0 .5.5 1 1.5 0 0-1.2 1.1-1.9 1.5-2.6 2.1-5 2-5 2-3.1.2-3.7-2.4-3.7-2.4v.1c-1.3 1.5-3.5 2.2-5.3 2.2-2.3 0-3.8-1.9-4.1-3.3-2.1 2.4-5.6 3-5.6 3-3.5.2-3.9-1.7-3.9-1.7l-.2-.1c-1.6 1.3-2.3 1.4-3.9 1.6-3 .5-5.1-1.8-5.3-3.5-2 1.8-5.9 3.1-5.9 3.1-3.1 1.2-6.4.6-6.4.6-2.1-.3-4.1-2.3-4.1-2.3-3 1.2-5.5 2-5.5 2-2.8 1-3.6.4-3.6.4-.8 0-1.2-1.1-1.2-1.1l-1.4-5.2-2.7 1.5-2.1 4.5h-4.7l1.1-2.2c-3.3 2.2-5.6 2.3-5.6 2.3-3.5.4-3.2-2.2-3.2-2.2l-.5.3c-2.3 1.6-3.3 2-5.2 2-5.6 0-4.2-5.1-3.5-7 1.2-2.9 4.3-6.1 8.7-6.4.8-.1 2.8-.1 4.3 1.2l.3-.4.4-.9h4.4l-4.7 9.9s-.3.8.5.7c.7.1 3.2-1.5 5.2-2.5m-27.3 5.2l8-16.7h7.7l1.6-3.5H37.1l-1.6 3.5h8l-8 16.7h5.6zm69.9-2.9c1.1-.1 3.5-1.9 4.3-4.1.9-2.2.5-4.1-1.1-4.1s-4.4 2.5-5.2 4.8c-1.2 4 1.4 3.4 2 3.4zm-54.4-.3c1.9-.6 3.2-3.7 3.8-4.8 1.1-2.1.1-3.4-2.1-3-1.7.3-3.7 2.6-4.2 4.2-1.8 5.6 3 3.4 2.5 3.6zm37.1-3.7c4.2-2.3 3.8-3.9 3.8-3.9 0-1.8-1.6-1.1-1.6-1.1-3.1 1.1-3.8 3.7-3.8 3.7-.2.6-.5 2.3-.5 2.3.7-.2 2.1-1 2.1-1zm37 3.8c1.6-.4 3.3-3.1 3.6-4.3.9-2.6.3-3.9-2-3.5-1.7.3-3.6 2.7-4.2 4.2-1.8 5.6 3 3.4 2.6 3.6z" fill="#e4412b"/>
    </symbol>
    <symbol id="takui-ico-x" viewBox="0 0 16 16">
        <path d="M4.646 4.646a.5.5 0 0 1 .708 0L8 7.293l2.646-2.647a.5.5 0 0 1 .708.708L8.707 8l2.647 2.646a.5.5 0 0 1-.708.708L8 8.707l-2.646 2.647a.5.5 0 0 1-.708-.708L7.293 8 4.646 5.354a.5.5 0 0 1 0-.708z"/>
    </symbol>
    <symbol id="takui-ico-x-circle" viewBox="0 0 16 16">
        <path d="M8 15A7 7 0 1 1 8 1a7 7 0 0 1 0 14zm0 1A8 8 0 1 0 8 0a8 8 0 0 0 0 16z"/>
        <path d="M4.646 4.646a.5.5 0 0 1 .708 0L8 7.293l2.646-2.647a.5.5 0 0 1 .708.708L8.707 8l2.647 2.646a.5.5 0 0 1-.708.708L8 8.707l-2.646 2.647a.5.5 0 0 1-.708-.708L7.293 8 4.646 5.354a.5.5 0 0 1 0-.708z"/>
    </symbol>
    <symbol id="takui-ico-x-circle-fill" viewBox="0 0 16 16">
        <path d="M16 8A8 8 0 1 1 0 8a8 8 0 0 1 16 0zM5.354 4.646a.5.5 0 1 0-.708.708L7.293 8l-2.647 2.646a.5.5 0 0 0 .708.708L8 8.707l2.646 2.647a.5.5 0 0 0 .708-.708L8.707 8l2.647-2.646a.5.5 0 0 0-.708-.708L8 7.293 5.354 4.646z"/>
    </symbol>
    <symbol id="takui-ico-x-square" viewBox="0 0 16 16">
        <path d="M14 1a1 1 0 0 1 1 1v12a1 1 0 0 1-1 1H2a1 1 0 0 1-1-1V2a1 1 0 0 1 1-1h12zM2 0a2 2 0 0 0-2 2v12a2 2 0 0 0 2 2h12a2 2 0 0 0 2-2V2a2 2 0 0 0-2-2H2z"/>
        <path d="M4.646 4.646a.5.5 0 0 1 .708 0L8 7.293l2.646-2.647a.5.5 0 0 1 .708.708L8.707 8l2.647 2.646a.5.5 0 0 1-.708.708L8 8.707l-2.646 2.647a.5.5 0 0 1-.708-.708L7.293 8 4.646 5.354a.5.5 0 0 1 0-.708z"/>
    </symbol>
    <symbol id="takui-ico-x-square-fill" viewBox="0 0 16 16">
        <path d="M2 0a2 2 0 0 0-2 2v12a2 2 0 0 0 2 2h12a2 2 0 0 0 2-2V2a2 2 0 0 0-2-2H2zm3.354 4.646L8 7.293l2.646-2.647a.5.5 0 0 1 .708.708L8.707 8l2.647 2.646a.5.5 0 0 1-.708.708L8 8.707l-2.646 2.647a.5.5 0 0 1-.708-.708L7.293 8 4.646 5.354a.5.5 0 1 1 .708-.708z"/>
    </symbol>
    <symbol id="takui-ico-search" viewBox="0 0 16 16">
        <path d="M11.742 10.344a6.5 6.5 0 1 0-1.397 1.398h-.001c.03.04.062.078.098.115l3.85 3.85a1 1 0 0 0 1.415-1.414l-3.85-3.85a1.007 1.007 0 0 0-.115-.1zM12 6.5a5.5 5.5 0 1 1-11 0 5.5 5.5 0 0 1 11 0z"/>
    </symbol>
    <symbol id="takui-ico-facebook" viewBox="-9 -5 30 30" >
        <path d="M6.4913914,20 L6.4913914,10.877729 L9.43854814,10.877729 L9.88070855,7.32156324 L6.4913914,7.32156324 L6.4913914,5.05146997 C6.4913914,4.02232836 6.76547623,3.32076396 8.18828436,3.32076396 L10,3.31999046 L10,0.139229981 C9.68668926,0.09694532 8.61120421,0 7.35945084,0 C4.74559019,0 2.95609429,1.65696569 2.95609429,4.69926969 L2.95609429,7.32156324 L0,7.32156324 L0,10.877729 L2.95609429,10.877729 L2.95609429,20 L6.4913914,20 Z" ></path>
    </symbol>
    <symbol id="takui-ico-twitter" viewBox="-2 -3 20 20">
        <path d="M5.026 15c6.038 0 9.341-5.003 9.341-9.334 0-.14 0-.282-.006-.422A6.685 6.685 0 0 0 16 3.542a6.658 6.658 0 0 1-1.889.518 3.301 3.301 0 0 0 1.447-1.817 6.533 6.533 0 0 1-2.087.793A3.286 3.286 0 0 0 7.875 6.03a9.325 9.325 0 0 1-6.767-3.429 3.289 3.289 0 0 0 1.018 4.382A3.323 3.323 0 0 1 .64 6.575v.045a3.288 3.288 0 0 0 2.632 3.218 3.203 3.203 0 0 1-.865.115 3.23 3.23 0 0 1-.614-.057 3.283 3.283 0 0 0 3.067 2.277A6.588 6.588 0 0 1 .78 13.58a6.32 6.32 0 0 1-.78-.045A9.344 9.344 0 0 0 5.026 15z"/>
    </symbol>
    <symbol id="takui-ico-linkedin" viewBox="0 0 30 30" >
        <path d="M7.9163759,11.4736842 C7.82502562,11.4900376 7.75262354,11.5738722 7.75438596,11.6616541 L7.75438596,21.8120301 C7.75438596,21.9103383 7.8493591,22 7.95367394,22 L11.3444049,22 C11.4489192,22 11.5438596,21.9103383 11.5438596,21.8120301 L11.5438596,11.6616541 C11.5438596,11.5633459 11.4489192,11.4736842 11.3444049,11.4736842 L7.9163759,11.4736842 Z M19.4035815,11.0526316 C18.0356537,11.0526316 17.2128385,11.7368421 16.596616,12.4387949 L16.596616,11.6188748 C16.596616,11.5201597 16.5073545,11.430127 16.4094849,11.430127 L13.4152012,11.430127 C13.3173317,11.430127 13.2280702,11.5201597 13.2280702,11.6188748 L13.2280702,21.8112523 C13.2280702,21.9099673 13.3173317,22 13.4152012,22 L16.596616,22 C16.6944855,22 16.783747,21.9099673 16.783747,21.8112523 L16.783747,16.1488203 C16.783747,15.632784 16.942247,15.1482686 17.1872015,14.8039927 C17.4319689,14.4597169 17.7510274,14.261343 18.0936643,14.261343 L18.4679264,14.261343 C18.8103762,14.261343 19.1294346,14.4597169 19.374202,14.8039927 C19.6191565,15.1482686 19.7778436,15.632784 19.7778436,16.1488203 L19.7778436,21.8112523 C19.7778436,21.9099673 19.866918,22 19.9649747,22 L23.1462023,22 C23.2440718,22 23.3333333,21.9099673 23.3333333,21.8112523 L23.3333333,15.2050817 C23.3333333,13.9708603 23.0984839,12.928784 22.4736533,12.1909691 C21.8488228,11.453343 20.8474846,11.0526316 19.4035815,11.0526316 L19.4035815,11.0526316 Z M9.43878788,6 C8.27821372,6 7.33333333,6.94488038 7.33333333,8.10526316 C7.33333333,9.26564593 8.27821372,10.2105263 9.43878788,10.2105263 C10.5991707,10.2105263 11.5438596,9.26564593 11.5438596,8.10526316 C11.5438596,6.94488038 10.5991707,6 9.43878788,6 L9.43878788,6 Z" ></path>
    </symbol>
    <symbol id="takui-ico-youtube" viewBox="3 3 24 24" >
        <path d="M13.3284146,17.516129 L13.3284146,12.483871 L17.9251697,14.9999869 L13.3284146,17.516129 Z M23.814625,10.6782557 C23.602737,9.90848984 22.9816823,9.30169257 22.1941194,9.09440577 C20.7552486,8.70967742 14.999765,8.70967742 14.999765,8.70967742 C14.999765,8.70967742 9.24448281,8.70967742 7.80564068,9.07982038 C7.0332045,9.28688236 6.39699431,9.90860225 6.18510639,10.6782557 C5.80645161,12.0842425 5.80645161,15 5.80645161,15 C5.80645161,15 5.80645161,17.9305115 6.18510639,19.3217724 C6.39722438,20.0914259 7.01804911,20.6982231 7.80575571,20.9055099 C9.2596382,21.2903226 14.9999951,21.2903226 14.9999951,21.2903226 C14.9999951,21.2903226 20.7552486,21.2903226 22.1941194,20.9202077 C22.9817973,20.7130333 23.602737,20.1062361 23.814855,19.3365827 C24.1934721,17.9305115 24.1934721,15.0148102 24.1934721,15.0148102 C24.1934721,15.0148102 24.2085502,12.0842425 23.814625,10.6782557 L23.814625,10.6782557 Z"></path>
    </symbol>
    <symbol id="takui-ico-chev-up" viewBox="-4 -4 24 24">
        <path d="M7.646 4.646a.5.5 0 0 1 .708 0l6 6a.5.5 0 0 1-.708.708L8 5.707l-5.646 5.647a.5.5 0 0 1-.708-.708l6-6z"/>
    </symbol>
    <symbol id="takui-ico-user" viewBox="-1 0 18 18">
        <path d="M8 8a3 3 0 1 0 0-6 3 3 0 0 0 0 6zm2-3a2 2 0 1 1-4 0 2 2 0 0 1 4 0zm4 8c0 1-1 1-1 1H3s-1 0-1-1 1-4 6-4 6 3 6 4zm-1-.004c-.001-.246-.154-.986-.832-1.664C11.516 10.68 10.289 10 8 10c-2.29 0-3.516.68-4.168 1.332-.678.678-.83 1.418-.832 1.664h10z"/>
    </symbol>
    <symbol id="takui-ico-video" viewBox="0 0 16 16">
        <path fill-rule="evenodd" d="M0 5a2 2 0 0 1 2-2h7.5a2 2 0 0 1 1.983 1.738l3.11-1.382A1 1 0 0 1 16 4.269v7.462a1 1 0 0 1-1.406.913l-3.111-1.382A2 2 0 0 1 9.5 13H2a2 2 0 0 1-2-2V5zm11.5 5.175 3.5 1.556V4.269l-3.5 1.556v4.35zM2 4a1 1 0 0 0-1 1v6a1 1 0 0 0 1 1h7.5a1 1 0 0 0 1-1V5a1 1 0 0 0-1-1H2z"/>
    </symbol>
    <symbol id="takui-ico-he-video" viewBox="0 0 682.67 520">
        <defs><clipPath id="clipPath23"><path d="m0 390h512v-390h-512z"/></clipPath></defs><g transform="matrix(1.3333 0 0 -1.3333 0 520)"><g clip-path="url(#clipPath23)"><g transform="translate(338.95 182.28)"><path d="m0 0-120-75c-2.428-1.518-5.187-2.28-7.95-2.28-2.501 0-5.005 0.624-7.271 1.88-4.77 2.644-7.729 7.667-7.729 13.12v150c0 5.453 2.959 10.477 7.729 13.12 4.769 2.643 10.597 2.49 15.222-0.4l120-75c4.386-2.741 7.049-7.548 7.049-12.72s-2.664-9.979-7.05-12.72m98.051 207.72h-362c-41.355 0-75-33.645-75-75v-240c0-41.356 33.645-75 75-75h362c41.355 0 75 33.644 75 75v240c0 41.355-33.645 75-75 75" fill="#fff"/></g></g></g>
    </symbol>    
    <symbol id="takui-ico-he-course" viewBox="0 0 682.67 510.17">
        <g transform="matrix(1.3333 0 0 -1.3333 0 510.17)"><g transform="translate(256 99.448)"><path d="m0 0-165.68 80.821v-106.69l165.69-73.583 165.69 73.583v106.7z" fill="#fff"/></g><g transform="translate(256 382.63)"><path d="m0 0-256-124.88 256-124.88 195.74 95.482v-111.15h30.032v125.8l30.232 14.748z" fill="#fff"/></g></g>
    </symbol>
    <symbol id="takui-ico-he-article" viewBox="0 0 441.33 585.33">
        <g transform="matrix(1.3333 0 0 -1.3333 0 585.33)"><g transform="translate(236 439)"><path d="m0 0v-95h95v0.21l-94.789 94.79z" fill="#fff"/></g><g transform="translate(0 439)"><path d="m0 0v-439h331v314h-125v125z" fill="#fff"/></g></g>
    </symbol>
    <symbol id="takui-ico-he-podcast" viewBox="0 0 383.76 512">
        <defs><clipPath id="clipPath16"><path d="M 0,384 H 287.82 V 0 H 0 Z"/></clipPath></defs><g transform="matrix(1.3333 0 0 -1.3333 0 512)"><g clip-path="url(#clipPath16)"><g transform="translate(151.41 384)"><path d="m0 0c4.383-0.909 8.825-1.594 13.138-2.763 34.893-9.456 58.651-39.626 59.298-76.213 0.48-27.236 0.49-54.494 0.01-81.729-0.698-39.6-27.795-70.984-66.71-78.16-42.348-7.811-85.294 22.556-91.965 65.123-0.752 4.798-1.251 9.687-1.273 14.536-0.123 26.245-0.187 52.49-0.028 78.734 0.234 38.351 25.489 69.906 62.65 78.542 3.267 0.759 6.586 1.292 9.88 1.93z" fill="#fff"/></g><g transform="translate(92.158)"><path d="m0 0c-0.969 0.492-1.925 1.013-2.909 1.473-6.514 3.039-10.014 9.518-9.118 16.906 0.799 6.585 6.047 12.523 12.951 13.167 7.685 0.716 15.467 0.429 23.207 0.536 3.725 0.053 7.453 0.01 11.428 0.01v48.337c-8.261 1.875-16.588 3.106-24.486 5.663-53.779 17.409-87.308 53.772-100.15 108.8-2.11 9.04-2.545 18.54-3.054 27.866-0.531 9.723 6.339 16.976 15.373 17.22 9.119 0.246 16.316-6.463 16.493-16.223 0.295-16.219 3.494-31.704 10.198-46.478 19.06-42 63.32-68.304 109.32-64.94 52.973 3.875 94.854 42.35 103.22 95.017 0.878 5.527 0.836 11.2 1.229 16.805 0.634 9.066 6.942 15.533 15.423 15.815 8.261 0.276 15.77-5.634 16.355-13.862 0.44-6.184 0.027-12.517-0.765-18.686-7.925-61.702-50.492-109.12-110.95-123.72-5.19-1.252-10.497-2.02-15.904-3.042v-48.378c1.387-0.08 2.698-0.22 4.009-0.222 8.499-0.01 16.999 0.023 25.498 0.015 9.659-9e-3 16.32-4.681 18.004-12.594 1.766-8.296-2.293-15.022-11.418-18.954-0.193-0.083-0.306-0.355-0.456-0.54z" fill="#fff"/></g></g></g>
    </symbol>
    <symbol id="takui-ico-chev-down" viewBox="-4 -4 24 24">
          <path fill-rule="evenodd" d="M1.646 4.646a.5.5 0 0 1 .708 0L8 10.293l5.646-5.647a.5.5 0 0 1 .708.708l-6 6a.5.5 0 0 1-.708 0l-6-6a.5.5 0 0 1 0-.708z"/>
    </symbol>
    <symbol id="takui-ico-chev-left" viewBox="-4 -4 24 24">
        <path fill-rule="evenodd" d="M11.354 1.646a.5.5 0 0 1 0 .708L5.707 8l5.647 5.646a.5.5 0 0 1-.708.708l-6-6a.5.5 0 0 1 0-.708l6-6a.5.5 0 0 1 .708 0z"/>
    </symbol>
        <symbol id="takui-ico-chev-right" viewBox="0 0 16 16">
        <path fill-rule="evenodd" d="M4.646 1.646a.5.5 0 0 1 .708 0l6 6a.5.5 0 0 1 0 .708l-6 6a.5.5 0 0 1-.708-.708L10.293 8 4.646 2.354a.5.5 0 0 1 0-.708z"/>
    </symbol>
    <symbol id="takui-ico-list" viewBox="0 0 16 16">
          <path fill-rule="evenodd" d="M2.5 12a.5.5 0 0 1 .5-.5h10a.5.5 0 0 1 0 1H3a.5.5 0 0 1-.5-.5zm0-4a.5.5 0 0 1 .5-.5h10a.5.5 0 0 1 0 1H3a.5.5 0 0 1-.5-.5zm0-4a.5.5 0 0 1 .5-.5h10a.5.5 0 0 1 0 1H3a.5.5 0 0 1-.5-.5z"/>
    </symbol>
    <symbol id="takui-ico-wifi" viewBox="0 2 16 16">
            <path d="M13.229 8.271c.216-.216.194-.578-.063-.745A9.456 9.456 0 0 0 8 6c-1.905 0-3.68.56-5.166 1.526a.48.48 0 0 0-.063.745.525.525 0 0 0 .652.065A8.46 8.46 0 0 1 8 7a8.46 8.46 0 0 1 4.577 1.336c.205.132.48.108.652-.065zm-2.183 2.183c.226-.226.185-.605-.1-.75A6.473 6.473 0 0 0 8 9c-1.06 0-2.062.254-2.946.704-.285.145-.326.524-.1.75l.015.015c.16.16.408.19.611.09A5.478 5.478 0 0 1 8 10c.868 0 1.69.201 2.42.56.203.1.45.07.611-.091l.015-.015zM9.06 12.44c.196-.196.198-.52-.04-.66A1.99 1.99 0 0 0 8 11.5a1.99 1.99 0 0 0-1.02.28c-.238.14-.236.464-.04.66l.706.706a.5.5 0 0 0 .708 0l.707-.707z"/>
    </symbol>
    <symbol id="takui-ico-tag" viewBox="-16 0 16 16">
            <path transform="scale (-1, 1)" d="M2 1a1 1 0 0 0-1 1v4.586a1 1 0 0 0 .293.707l7 7a1 1 0 0 0 1.414 0l4.586-4.586a1 1 0 0 0 0-1.414l-7-7A1 1 0 0 0 6.586 1H2zm4 3.5a1.5 1.5 0 1 1-3 0 1.5 1.5 0 0 1 3 0z"/>
    </symbol>
    <symbol id="takui-ico-check" viewBox="0 0 16 16">
            <path d="M13.854 3.646a.5.5 0 0 1 0 .708l-7 7a.5.5 0 0 1-.708 0l-3.5-3.5a.5.5 0 1 1 .708-.708L6.5 10.293l6.646-6.647a.5.5 0 0 1 .708 0z"/>
    </symbol>
    <symbol id="takui-ico-play-circle" viewBox="0 0 16 16">
        <path d="M8 15A7 7 0 1 1 8 1a7 7 0 0 1 0 14zm0 1A8 8 0 1 0 8 0a8 8 0 0 0 0 16z"/>
        <path d="M6.271 5.055a.5.5 0 0 1 .52.038l3.5 2.5a.5.5 0 0 1 0 .814l-3.5 2.5A.5.5 0 0 1 6 10.5v-5a.5.5 0 0 1 .271-.445z"/>
    </symbol>
    <symbol id="takui-ico-file-pdf" viewBox="0 0 32 32">
        <path d="M21 13v-3l-6-7h-10.997c-1.106 0-2.003 0.898-2.003 2.007v22.985c0 1.109 0.891 2.007 1.997 2.007h15.005c1.103 0 1.997-0.898 1.997-1.991v-2.009h7.993c1.661 0 3.007-1.342 3.007-2.999v-7.002c0-1.656-1.336-2.999-3.007-2.999h-7.993zM20 26v2.007c0 0.548-0.448 0.993-1 0.993h-15c-0.545 0-1-0.446-1-0.995v-23.009c0-0.54 0.446-0.995 0.996-0.995h10.004v4.994c0 1.119 0.895 2.006 1.998 2.006h4.002v2h-7.993c-1.661 0-3.007 1.342-3.007 2.999v7.002c0 1.656 1.336 2.999 3.007 2.999h7.993zM15 4.5l4.7 5.5h-3.703c-0.546 0-0.997-0.452-0.997-1.009v-4.491zM11.995 14h17.011c1.092 0 1.995 0.892 1.995 1.992v7.016c0 1.092-0.893 1.992-1.995 1.992h-17.011c-1.092 0-1.995-0.892-1.995-1.992v-7.016c0-1.092 0.893-1.992 1.995-1.992zM25 19v-2h4v-1h-5v7h1v-3h3v-1h-3zM12 18v-2h2.995c1.111 0 2.005 0.895 2.005 2 0 1.112-0.898 2-2.005 2h-1.995v3h-1v-5zM13 17v2h2.001c0.552 0 0.999-0.444 0.999-1 0-0.552-0.443-1-0.999-1h-2.001zM18 16h2.995c1.111 0 2.005 0.898 2.005 2.006v2.988c0 1.119-0.898 2.006-2.005 2.006h-2.995v-7zM19 17v5h2.001c0.552 0 0.999-0.444 0.999-1v-3c0-0.552-0.443-1-0.999-1h-2.001z"></path>
    </symbol>
    <symbol id="takui-ico-mic" viewBox="5 4 30 30">
        <path d="M16.09 10.2c-.26 0-.47.208-.47.465v2.846c0 3.96-3.256 7.183-7.257 7.183-4 0-7.256-3.222-7.256-7.183v-2.846c0-.257-.21-.465-.47-.465s-.47.208-.47.465v2.846c0 3.877 2.761 7.127 6.44 7.926l-.295 2.185H4.328c-1.275 0-2.312 1.027-2.312 2.29 0 .6.493 1.088 1.1 1.088H13.61c.606 0 1.1-.488 1.1-1.089 0-1.262-1.038-2.289-2.313-2.289h-1.983l-.295-2.185c3.678-.799 6.44-4.049 6.44-7.926v-2.846c0-.257-.21-.465-.47-.465zm-2.32 15.711c0 .087-.071.158-.16.158H3.116c-.087 0-.159-.07-.159-.158 0-.748.616-1.358 1.372-1.358h8.07c.757 0 1.372.61 1.372 1.358zm-4.304-2.289H7.26l.275-2.038c.273.027.549.04.828.04.28 0 .556-.013.828-.04l.275 2.038z" transform="translate(11 6)"/>
        <path d="M3.98 16.846c.234-.125.32-.414.193-.645-.403-.735-.616-1.569-.616-2.411v-.74h10.22v.74c0 2.789-2.293 5.058-5.11 5.058-1.15 0-2.235-.369-3.139-1.066-.209-.162-.511-.125-.675.083-.163.207-.125.506.084.668 1.075.829 2.364 1.267 3.73 1.267 3.348 0 6.071-2.696 6.071-6.01V6.01c0-3.314-2.723-6.01-6.071-6.01S2.595 2.696 2.595 6.01v7.78c0 1 .254 1.991.733 2.865.127.231.419.317.652.191zM8.667.952c2.466 0 4.53 1.74 5.006 4.044h-3.074c-.266 0-.481.213-.481.476s.215.476.48.476h3.177l.001.062v1.2H10.6c-.266 0-.481.213-.481.476s.215.476.48.476h3.178v1.262H10.6c-.266 0-.481.213-.481.476s.215.476.48.476h3.178v1.722H3.557v-1.722h3.178c.265 0 .48-.213.48-.476s-.215-.476-.48-.476H3.557V8.162h3.178c.265 0 .48-.213.48-.476S7 7.21 6.735 7.21H3.557v-1.2l.002-.062h3.176c.265 0 .48-.213.48-.476s-.215-.476-.48-.476H3.66C4.136 2.69 6.2.952 8.667.952z" transform="translate(11 6)"/>
    </symbol>
    <symbol id="takui-ico-mic-solid" viewBox="0 0 32 32">
        <path d="M15 22c2.761 0 5-2.239 5-5v-12c0-2.761-2.239-5-5-5s-5 2.239-5 5v12c0 2.761 2.239 5 5 5zM22 14v3c0 3.866-3.134 7-7 7s-7-3.134-7-7v-3h-2v3c0 4.632 3.5 8.447 8 8.944v4.056h-4v2h10v-2h-4v-4.056c4.5-0.497 8-4.312 8-8.944v-3h-2z"></path>
    </symbol>
    <symbol id="takui-ico-calendar" viewBox="0 0 24 24">
        <path d="M18.333 1.333h-2V1c0-.552-.447-1-1-1-.552 0-1 .448-1 1v.333H11V1c0-.552-.448-1-1-1S9 .448 9 1v.333H5.667V1c0-.552-.448-1-1-1-.553 0-1 .448-1 1v.333h-2C.747 1.334 0 2.08 0 3v15.333C.001 19.253.747 20 1.667 20h16.666c.92-.001 1.666-.747 1.667-1.667V3c-.001-.92-.747-1.666-1.667-1.667zM15 1c0-.184.15-.333.333-.333.184 0 .334.149.334.333v2c0 .184-.15.333-.334.333C15.15 3.333 15 3.184 15 3V1zM9.667 1c0-.184.149-.333.333-.333.184 0 .333.149.333.333v2c0 .184-.149.333-.333.333-.184 0-.333-.149-.333-.333V1zM4.333 1c0-.184.15-.333.334-.333C4.85.667 5 .816 5 1v2c0 .184-.15.333-.333.333-.184 0-.334-.149-.334-.333V1zM1.667 2h2v1c0 .552.447 1 1 1 .552 0 1-.448 1-1V2H9v1c0 .552.448 1 1 1s1-.448 1-1V2h3.333v1c0 .552.448 1 1 1 .553 0 1-.448 1-1V2h2c.552 0 1 .448 1 1v2.333H.667V3c0-.552.448-1 1-1zm16.666 17.333H1.667c-.552 0-1-.448-1-1V6h18.666v12.333c0 .552-.448 1-1 1z" transform="translate(-1185 -656) translate(1184 654) translate(1 2)"/>
        <path d="M17.667 8h-1.334c-.184 0-.333.15-.333.333v1.334c0 .184.15.333.333.333h1.334c.184 0 .333-.15.333-.333V8.333C18 8.15 17.85 8 17.667 8zm-.334 1.333h-.666v-.666h.666v.666zM10.667 15H9.333c-.184 0-.333.15-.333.333v1.334c0 .184.15.333.333.333h1.334c.184 0 .333-.15.333-.333v-1.334c0-.184-.15-.333-.333-.333zm-.334 1.333h-.666v-.666h.666v.666zM6.667 8H5.333C5.15 8 5 8.15 5 8.333v1.334c0 .184.15.333.333.333h1.334C6.85 10 7 9.85 7 9.667V8.333C7 8.15 6.85 8 6.667 8zm-.334 1.333h-.666v-.666h.666v.666zM3.667 11H2.333c-.184 0-.333.15-.333.333v1.334c0 .184.15.333.333.333h1.334c.184 0 .333-.15.333-.333v-1.334C4 11.15 3.85 11 3.667 11zm-.334 1.333h-.666v-.666h.666v.666zM6.667 11H5.333c-.184 0-.333.15-.333.333v1.334c0 .184.15.333.333.333h1.334c.184 0 .333-.15.333-.333v-1.334C7 11.15 6.85 11 6.667 11zm-.334 1.333h-.666v-.666h.666v.666zM3.667 15H2.333c-.184 0-.333.15-.333.333v1.334c0 .184.15.333.333.333h1.334c.184 0 .333-.15.333-.333v-1.334C4 15.15 3.85 15 3.667 15zm-.334 1.333h-.666v-.666h.666v.666zM6.667 15H5.333c-.184 0-.333.15-.333.333v1.334c0 .184.15.333.333.333h1.334c.184 0 .333-.15.333-.333v-1.334C7 15.15 6.85 15 6.667 15zm-.334 1.333h-.666v-.666h.666v.666zM14.217 10.041l-1.667-.255-.749-1.594C11.747 8.075 11.63 8 11.5 8c-.13 0-.247.075-.302.192l-.748 1.594-1.667.255c-.123.019-.226.105-.266.224-.04.118-.01.25.078.339L9.81 11.85l-.288 1.763c-.02.126.033.252.137.326.104.073.241.08.353.02l1.487-.822 1.487.821c.111.062.248.055.353-.019.104-.073.157-.2.137-.326l-.288-1.764 1.216-1.246c.087-.09.117-.22.078-.338-.04-.119-.143-.205-.266-.224zM17.667 11h-1.334c-.184 0-.333.15-.333.333v1.334c0 .184.15.333.333.333h1.334c.184 0 .333-.15.333-.333v-1.334c0-.184-.15-.333-.333-.333zm-.334 1.333h-.666v-.666h.666v.666zM17.667 15h-1.334c-.184 0-.333.15-.333.333v1.334c0 .184.15.333.333.333h1.334c.184 0 .333-.15.333-.333v-1.334c0-.184-.15-.333-.333-.333zm-.334 1.333h-.666v-.666h.666v.666zM14.667 15h-1.334c-.184 0-.333.15-.333.333v1.334c0 .184.15.333.333.333h1.334c.184 0 .333-.15.333-.333v-1.334c0-.184-.15-.333-.333-.333zm-.334 1.333h-.666v-.666h.666v.666z" transform="translate(-1185 -656) translate(1184 654) translate(1 2)"/>
    </symbol>
    <symbol id="takui-ico-clock" viewBox="0 0 24 24">
        <path d="M11.5 0C5.159 0 0 5.159 0 11.5S5.159 23 11.5 23 23 17.841 23 11.5 17.841 0 11.5 0zm0 21.562c-5.549 0-10.062-4.513-10.062-10.062C1.438 5.951 5.95 1.438 11.5 1.438c5.549 0 10.062 4.513 10.062 10.062 0 5.549-4.513 10.062-10.062 10.062z" transform="translate(-314 -1059) translate(313 1057) translate(1 2)"/>
        <path d="M12.298 5L11 5 11 12.48 15.083 17 16 15.984 12.298 11.885z" transform="translate(-314 -1059) translate(313 1057) translate(1 2)"/>
    </symbol>
    <symbol id="takui-ico-flag-us" viewBox="0 0 640 480">
        <g fill-rule="evenodd">
            <g stroke-width="1pt">
                <path fill="#bd3d44" d="M0 0h912v37H0zm0 73.9h912v37H0zm0 73.8h912v37H0zm0 73.8h912v37H0zm0 74h912v36.8H0zm0 73.7h912v37H0zM0 443h912V480H0z"/>
                <path fill="#fff" d="M0 37h912v36.9H0zm0 73.8h912v36.9H0zm0 73.8h912v37H0zm0 73.9h912v37H0zm0 73.8h912v37H0zm0 73.8h912v37H0z"/>
            </g>
            <path fill="#192f5d" d="M0 0h364.8v258.5H0z"/>
            <path fill="#fff" d="M30.4 11l3.4 10.3h10.6l-8.6 6.3 3.3 10.3-8.7-6.4-8.6 6.3L25 27.6l-8.7-6.3h10.9zm60.8 0l3.3 10.3h10.8l-8.7 6.3 3.2 10.3-8.6-6.4-8.7 6.3 3.3-10.2-8.6-6.3h10.6zm60.8 0l3.3 10.3H166l-8.6 6.3 3.3 10.3-8.7-6.4-8.7 6.3 3.3-10.2-8.7-6.3h10.8zm60.8 0l3.3 10.3h10.8l-8.7 6.3 3.3 10.3-8.7-6.4-8.7 6.3 3.4-10.2-8.8-6.3h10.7zm60.8 0l3.3 10.3h10.7l-8.6 6.3 3.3 10.3-8.7-6.4-8.7 6.3 3.3-10.2-8.6-6.3h10.7zm60.8 0l3.3 10.3h10.8l-8.8 6.3 3.4 10.3-8.7-6.4-8.7 6.3 3.4-10.2-8.8-6.3h10.8zM60.8 37l3.3 10.2H75l-8.7 6.2 3.2 10.3-8.5-6.3-8.7 6.3 3.1-10.3-8.4-6.2h10.7zm60.8 0l3.4 10.2h10.7l-8.8 6.2 3.4 10.3-8.7-6.3-8.7 6.3 3.3-10.3-8.7-6.2h10.8zm60.8 0l3.3 10.2h10.8l-8.7 6.2 3.3 10.3-8.7-6.3-8.7 6.3 3.3-10.3-8.6-6.2H179zm60.8 0l3.4 10.2h10.6l-8.7 6.2 3.4 10.3-8.7-6.3-8.6 6.3 3.2-10.3-8.7-6.2H240zm60.8 0l3.3 10.2h10.8l-8.7 6.2 3.3 10.3-8.7-6.3-8.7 6.3 3.3-10.3-8.6-6.2h10.7zM30.4 62.6l3.3 10.4h10.7l-8.6 6.3 3.3 10.2-8.7-6.3-8.7 6.3L25 79.3 16.3 73h10.9zm60.8 0L94.5 73h10.8l-8.7 6.3 3.2 10.2-8.6-6.3-8.7 6.3 3.3-10.3-8.6-6.3h10.6zm60.8 0l3.3 10.3H166l-8.6 6.3 3.3 10.2-8.7-6.3-8.7 6.3 3.3-10.3-8.7-6.3h10.8zm60.8 0l3.3 10.3h10.8l-8.7 6.3 3.3 10.2-8.7-6.3-8.7 6.3 3.4-10.3-8.8-6.3h10.7zm60.8 0l3.3 10.3h10.7l-8.6 6.3 3.3 10.2-8.7-6.3-8.7 6.3 3.3-10.3-8.6-6.3h10.7zm60.8 0l3.3 10.3h10.8l-8.8 6.3 3.4 10.2-8.7-6.3-8.7 6.3 3.4-10.3-8.8-6.3h10.8zM60.8 88.6l3.3 10.2H75l-8.7 6.3 3.3 10.3-8.7-6.4-8.7 6.3 3.3-10.2-8.6-6.3h10.7zm60.8 0l3.4 10.2h10.7l-8.8 6.3 3.4 10.3-8.7-6.4-8.7 6.3 3.3-10.2-8.7-6.3h10.8zm60.8 0l3.3 10.2h10.8l-8.7 6.3 3.3 10.3-8.7-6.4-8.7 6.3 3.3-10.2-8.6-6.3H179zm60.8 0l3.4 10.2h10.7l-8.7 6.3 3.3 10.3-8.7-6.4-8.6 6.3 3.2-10.2-8.7-6.3H240zm60.8 0l3.3 10.2h10.8l-8.7 6.3 3.3 10.3-8.7-6.4-8.7 6.3 3.3-10.2-8.6-6.3h10.7zM30.4 114.5l3.4 10.2h10.6l-8.6 6.3 3.3 10.3-8.7-6.4-8.6 6.3L25 131l-8.7-6.3h10.9zm60.8 0l3.3 10.2h10.8l-8.7 6.3 3.2 10.2-8.6-6.3-8.7 6.3 3.3-10.2-8.6-6.3h10.6zm60.8 0l3.3 10.2H166l-8.6 6.3 3.3 10.3-8.7-6.4-8.6 6.3 3.2-10.2-8.7-6.3h10.8zm60.8 0l3.3 10.2h10.8l-8.7 6.3 3.3 10.3-8.7-6.4-8.7 6.3 3.4-10.2-8.7-6.3h10.6zm60.8 0l3.3 10.2h10.7L279 131l3.3 10.3-8.7-6.4-8.7 6.3 3.3-10.2-8.6-6.3h10.7zm60.8 0l3.3 10.2h10.8l-8.8 6.3 3.4 10.3-8.7-6.4-8.7 6.3L329 131l-8.8-6.3h10.8zM60.8 140.3l3.3 10.3H75l-8.7 6.2 3.3 10.3-8.7-6.4-8.7 6.4 3.3-10.3-8.6-6.3h10.7zm60.8 0l3.4 10.3h10.7l-8.8 6.2 3.4 10.3-8.7-6.4-8.7 6.4 3.4-10.3-8.8-6.3h10.8zm60.8 0l3.3 10.3h10.8l-8.7 6.2 3.3 10.3-8.7-6.4-8.7 6.4 3.3-10.3-8.6-6.3H179zm60.8 0l3.4 10.3h10.7l-8.7 6.2 3.3 10.3-8.7-6.4-8.6 6.4 3.2-10.3-8.7-6.3H240zm60.8 0l3.3 10.3h10.8l-8.7 6.2 3.3 10.3-8.7-6.4-8.7 6.4 3.3-10.3-8.6-6.3h10.7zM30.4 166.1l3.4 10.3h10.6l-8.6 6.3 3.3 10.1-8.7-6.2-8.6 6.2 3.2-10.2-8.7-6.3h10.9zm60.8 0l3.3 10.3h10.8l-8.7 6.3 3.3 10.1-8.7-6.2-8.7 6.2 3.4-10.2-8.7-6.3h10.6zm60.8 0l3.3 10.3H166l-8.6 6.3 3.3 10.1-8.7-6.2-8.6 6.2 3.2-10.2-8.7-6.3h10.8zm60.8 0l3.3 10.3h10.8l-8.7 6.3 3.3 10.1-8.7-6.2-8.7 6.2 3.4-10.2-8.7-6.3h10.6zm60.8 0l3.3 10.3h10.7l-8.6 6.3 3.3 10.1-8.7-6.2-8.7 6.2 3.3-10.2-8.6-6.3h10.7zm60.8 0l3.3 10.3h10.8l-8.7 6.3 3.3 10.1-8.7-6.2-8.7 6.2 3.4-10.2-8.8-6.3h10.8zM60.8 192l3.3 10.2H75l-8.7 6.3 3.3 10.3-8.7-6.4-8.7 6.3 3.3-10.2-8.6-6.3h10.7zm60.8 0l3.4 10.2h10.7l-8.8 6.3 3.4 10.3-8.7-6.4-8.7 6.3 3.4-10.2-8.8-6.3h10.8zm60.8 0l3.3 10.2h10.8l-8.7 6.3 3.3 10.3-8.7-6.4-8.7 6.3 3.3-10.2-8.6-6.3H179zm60.8 0l3.4 10.2h10.7l-8.7 6.3 3.3 10.3-8.7-6.4-8.6 6.3 3.2-10.2-8.7-6.3H240zm60.8 0l3.3 10.2h10.8l-8.7 6.3 3.3 10.3-8.7-6.4-8.7 6.3 3.3-10.2-8.6-6.3h10.7zM30.4 217.9l3.4 10.2h10.6l-8.6 6.3 3.3 10.2-8.7-6.3-8.6 6.3 3.2-10.3-8.7-6.3h10.9zm60.8 0l3.3 10.2h10.8l-8.7 6.3 3.3 10.2-8.7-6.3-8.7 6.3 3.4-10.3-8.7-6.3h10.6zm60.8 0l3.3 10.2H166l-8.4 6.3 3.3 10.2-8.7-6.3-8.7 6.3 3.3-10.3-8.7-6.3h10.8zm60.8 0l3.3 10.2h10.8l-8.7 6.3 3.3 10.2-8.7-6.3-8.7 6.3 3.4-10.3-8.7-6.3h10.6zm60.8 0l3.3 10.2h10.7l-8.6 6.3 3.3 10.2-8.7-6.3-8.7 6.3 3.3-10.3-8.6-6.3h10.7zm60.8 0l3.3 10.2h10.8l-8.7 6.3 3.3 10.2-8.7-6.3-8.7 6.3 3.4-10.3-8.8-6.3h10.8z"/>
        </g>
    </symbol>
    <symbol id="takui-ico-filter" viewBox="0 0 20 20.1">
        <g transform="translate(-540.000000, -211.000000)">
            <path class="st0" d="M550,225c1.3,0,2.4,0.8,2.8,2l0,0l0,0l0.1,0h6c0.6,0,1,0.4,1,1c0,0.5-0.4,0.9-0.9,1l-0.1,0h-6c-0.1,0-0.1,0-0.2,0c-0.4,1.2-1.5,2-2.8,2s-2.4-0.8-2.8-2l0,0l0,0l-0.1,0h-6c-0.6,0-1-0.4-1-1c0-0.5,0.4-0.9,0.9-1l0.1,0h6c0.1,0,0.1,0,0.2,0C547.6,225.8,548.7,225,550,225z M550,227c-0.6,0-1,0.4-1,1s0.4,1,1,1s1-0.4,1-1S550.6,227,550,227z M543,218c1.3,0,2.4,0.8,2.8,2l0,0l0,0l0.1,0h13c0.6,0,1,0.4,1,1c0,0.5-0.4,0.9-0.9,1l-0.1,0h-13c-0.1,0-0.1,0-0.2,0c-0.4,1.2-1.5,2-2.8,2c-1.7,0-3-1.3-3-3S541.3,218,543,218z M543,220c-0.6,0-1,0.4-1,1s0.4,1,1,1s1-0.4,1-1S543.6,220,543,220z M554,211c1.3,0,2.4,0.8,2.8,2l0,0l0,0l0.1,0h2c0.6,0,1,0.4,1,1c0,0.5-0.4,0.9-0.9,1l-0.1,0h-2c-0.1,0-0.1,0-0.2,0c-0.4,1.2-1.5,2-2.8,2s-2.4-0.8-2.8-2l0,0l0,0l-0.1,0h-10c-0.6,0-1-0.4-1-1c0-0.5,0.4-0.9,0.9-1l0.1,0h10c0.1,0,0.1,0,0.2,0C551.6,211.8,552.7,211,554,211z M554,213c-0.6,0-1,0.4-1,1s0.4,1,1,1s1-0.4,1-1S554.6,213,554,213z"/>
        </g>
    </symbol>
    <symbol id="takui-ico-plus" viewBox="0 0 443 443.8">
    	<path style="fill-rule:evenodd;clip-rule:evenodd" d="M221,0c123,0,222,99,222,221c0,123-99,222-222,222C99,443,0,344,0,221C0,99,99,0,221,0z M221,46c18,0,33,15,33,33v109h109c19,0,34,15,34,33s-15,33-34,33H254v109c0,19-15,34-33,34s-33-15-33-34V254H79c-18,0-33-15-33-33s15-33,33-33h109V79C188,61,203,46,221,46z"/>
	</symbol>
	<symbol id="takui-ico-home" viewBox="0 0 91.4 91.1">
        <path d="M88.5,29.2l-40-28c-1.7-1.2-4-1.2-5.7,0l-40,28c-1.3,0.9-2.1,2.5-2.1,4.1v52c0,2.8,2.2,5,5,5h27c2.8,0,5-2.2,5-5v-30h16v30c0,2.8,2.2,5,5,5h27c2.8,0,5-2.2,5-5v-52C90.7,31.7,89.9,30.2,88.5,29.2z M80.7,80.3h-17v-30c0-2.8-2.2-5-5-5h-26c-2.8,0-5,2.2-5,5v30h-17V35.9l35-24.5l35,24.5V80.3z"/>
    </symbol>
    <symbol id="takui-ico-login" viewBox="0 0 92.5 91.7" >
        <path d="M34.8,63.7L34.8,63.7c2,2,5.1,2,7.1,0l10.6-10.6l3.5-3.5c2-2,2-5.1,0-7.1L52.5,39L41.8,28.3c-2-2-5.1-2-7.1,0l0,0c-2,2-2,5.1,0,7.1l5.6,5.6H6.5c-2.8,0-5,2.2-5,5l0,0c0,2.8,2.2,5,5,5h33.9l-5.6,5.6C32.8,58.6,32.8,61.7,34.8,63.7z"/>
        <path d="M11.5,5v22c0,2.2,1.8,4,4,4h2c2.2,0,4-1.8,4-4V13c0-1.1,0.9-2,2-2h56c1.1,0,2,0.9,2,2v66c0,1.1-0.9,2-2,2h-56c-1.1,0-2-0.9-2-2V65c0-2.2-1.8-4-4-4h-2c-2.2,0-4,1.8-4,4v22c0,2.2,1.8,4,4,4h72c2.2,0,4-1.8,4-4V5c0-2.2-1.8-4-4-4h-72C13.3,1,11.5,2.8,11.5,5z"/>
    </symbol>
    <symbol id="takui-ico-contactus" viewBox="0 0 66.3 59.8">
        <path  d="M53.2,1h-40c-6.6,0-12,5.4-12,12v34c0,6.6,5.4,12,12,12h40c6.6,0,12-5.4,12-12V13C65.2,6.4,59.8,1,53.2,1zM57.2,47c0,2.2-1.8,4-4,4h-40c-2.2,0-4-1.8-4-4V25.9L30.4,38c1.7,1.1,3.8,1.1,5.4,0l21.3-12.1V47z M57.2,16.7l-24,13.6l-24-13.6V13c0-2.2,1.8-4,4-4h40c2.2,0,4,1.8,4,4V16.7z"/>
    </symbol>
    <symbol id="takui-ico-tutorial" viewBox="0 0 20 14.6">
        <path d="M20,4.8c-0.1-0.8-0.6-0.9-0.6-0.9l0,0l-9-3.5c-0.3-0.1-0.5-0.1-0.8,0l-9,3.5C0.3,4,0,4.4,0,4.8s0.3,0.8,0.6,0.9L4,7v6.3c0,0.6,0.4,1,1,1h10c0.6,0,1-0.4,1-1V7l2-0.7v4c0,0.6,0.4,1,1,1s1-0.4,1-1V4.8L20,4.8z M14,12.3H6V7.8l3.6,1.4C9.8,9.3,9.9,9.3,10,9.3s0.2,0,0.4-0.1L14,7.8V12.3z M10,7.2L3.8,4.8L10,2.4l6.2,2.4L10,7.2z"/>
    </symbol>
    <symbol id="takui-ico-exclamation" viewBox="0 0 30 30">
        <path  d="M 14.00,3.00 C 14.00,3.00 14.00,21.00 14.00,21.00 14.00,21.00 17.00,21.00 17.00,21.00 17.00,21.00 17.00,3.00 17.00,3.00 17.00,3.00 14.00,3.00 14.00,3.00 Z M 14.00,24.00 C 14.00,24.00 14.00,27.00 14.00,27.00 14.00,27.00 17.00,27.00 17.00,27.00 17.00,27.00 17.00,24.00 17.00,24.00 17.00,24.00 14.00,24.00 14.00,24.00 Z" />
    </symbol>
    <symbol id="takui-ico-envelope" viewBox="0 0 24 24">
        <path d="M22 3H2C.898 3 0 3.898 0 5v14c0 1.102.898 2 2 2h20c1.102 0 2-.898 2-2V5c0-1.102-.898-2-2-2zM2 4h20c.074 0 .137.027.207.043-1.73 1.582-7.473 6.836-9.48 8.645-.157.144-.41.312-.727.312-.316 0-.566-.168-.727-.313-2.007-1.808-7.75-7.062-9.48-8.644C1.859 4.027 1.926 4 2 4zM1 19V5c0-.098.031-.188.055-.277 1.328 1.215 5.332 4.879 7.93 7.242-2.59 2.223-6.598 6.023-7.93 7.297C1.027 19.176 1 19.094 1 19zm21 1H2c-.078 0-.152-.027-.227-.047 1.383-1.316 5.414-5.137 7.957-7.312.332.3.637.574.875.793.41.37.895.566 1.395.566s.984-.195 1.395-.566l.875-.793c2.543 2.175 6.574 5.996 7.957 7.312-.075.02-.149.047-.227.047zm1-1c0 .094-.027.176-.055.262-1.336-1.278-5.34-5.075-7.93-7.297 2.598-2.363 6.602-6.027 7.93-7.242.024.09.055.18.055.277zm0 0"/>
    </symbol>
    <symbol id="takui-ico-phone-call" viewBox="0 0 24 24">
        <path d="M18.969 14.867c-.492-.512-1.086-.785-1.715-.785-.621 0-1.219.27-1.73.781l-1.602 1.594-.39-.203a7.281 7.281 0 01-.5-.266c-1.5-.953-2.864-2.195-4.169-3.8-.633-.801-1.058-1.473-1.367-2.157.414-.383.797-.777 1.172-1.156.145-.14.285-.29.426-.43 1.066-1.066 1.066-2.441 0-3.508L7.71 3.556c-.156-.157-.316-.317-.469-.48a27.16 27.16 0 00-.953-.942c-.492-.485-1.078-.746-1.695-.746-.621 0-1.219.261-1.723.746-.008.004-.008.004-.012.012L1.137 3.879A3.716 3.716 0 00.039 6.234c-.121 1.48.313 2.86.648 3.762.82 2.211 2.047 4.262 3.875 6.461 2.22 2.648 4.887 4.742 7.938 6.215 1.164.555 2.719 1.207 4.457 1.316.105.008.219.012.32.012 1.168 0 2.153-.422 2.922-1.258.004-.008.016-.012.02-.023.261-.32.566-.61.886-.918.22-.207.442-.426.657-.653.504-.523.765-1.128.765-1.753 0-.63-.265-1.23-.777-1.739zM20.78 20.2c-.004 0-.004.008 0 0-.199.215-.402.406-.617.621-.332.313-.664.64-.98 1.012-.512.547-1.114.805-1.903.805-.078 0-.156 0-.234-.004-1.504-.098-2.902-.684-3.95-1.188a22.427 22.427 0 01-7.476-5.855c-1.726-2.082-2.883-4.004-3.648-6.07-.47-1.262-.645-2.247-.567-3.172a2.31 2.31 0 01.7-1.504l1.726-1.727c.25-.234.512-.36.77-.36.32 0 .578.192.738.352l.015.016c.31.29.606.59.915.906.156.164.316.324.48.492l1.383 1.383c.535.54.535 1.035 0 1.57-.149.149-.29.294-.438.438-.422.434-.828.84-1.27 1.234-.01.012-.019.016-.023.024-.437.437-.355.863-.265 1.152.004.016.011.031.015.043.36.875.868 1.695 1.637 2.672l.004.004c1.398 1.723 2.871 3.066 4.5 4.094.207.133.418.238.621.34.184.09.356.175.5.27.024.007.043.023.063.034a1.1 1.1 0 00.5.125c.421 0 .683-.261.773-.347l1.73-1.735c.172-.172.446-.379.766-.379.313 0 .57.196.73.367.004.008.004.008.008.012l2.793 2.793c.52.516.52 1.047.004 1.582zm0 0M12.969 5.707a6.43 6.43 0 013.496 1.816 6.453 6.453 0 011.812 3.493c.059.336.348.57.676.57.04 0 .074-.008.117-.012a.684.684 0 00.563-.789 7.818 7.818 0 00-2.195-4.23 7.812 7.812 0 00-4.231-2.192.685.685 0 00-.789.555.672.672 0 00.55.789zm0 0M23.973 10.586a12.871 12.871 0 00-3.614-6.965 12.84 12.84 0 00-6.964-3.61.683.683 0 00-.786.555.692.692 0 00.563.793 11.487 11.487 0 016.226 3.227 11.49 11.49 0 013.227 6.223c.055.336.344.57.672.57.043 0 .078-.008.117-.012a.67.67 0 00.559-.781zm0 0"/>
    </symbol>
    <symbol id="takui-ico-pin" viewBox="0 0 24 24">
      <path d="M12 0C7.113 0 3.133 3.977 3.133 8.867c0 1.61.722 3.34.754 3.41.234.555.691 1.414 1.023 1.918l6.078 9.211c.25.38.617.594 1.012.594s.762-.215 1.012-.594l6.078-9.21a13.9 13.9 0 001.023-1.919c.032-.07.754-1.8.754-3.41C20.867 3.977 16.887 0 12 0zm7.152 11.875a13.154 13.154 0 01-.933 1.746l-6.078 9.211c-.121.184-.16.184-.282 0l-6.078-9.21a13.154 13.154 0 01-.933-1.747c-.008-.023-.672-1.617-.672-3.008 0-4.316 3.511-7.824 7.824-7.824s7.824 3.508 7.824 7.824c0 1.395-.664 2.992-.672 3.008zm0 0"/>
      <path d="M12 4.172a4.7 4.7 0 00-4.695 4.695A4.699 4.699 0 0012 13.56a4.699 4.699 0 004.695-4.692A4.7 4.7 0 0012 4.172zm0 8.344a3.656 3.656 0 01-3.652-3.649A3.657 3.657 0 0112 5.215a3.657 3.657 0 013.652 3.652A3.656 3.656 0 0112 12.516zm0 0"/>
    </symbol>
    <symbol id="takui-ico-like" viewBox="0 0 320.12 287.82">
        <path d="M1004.79,489.64c22.8,0,45-.05,67.28,0,7.73,0,15.59-.4,23.17.79,14,2.2,23.87,14.39,24.68,28.57a89.26,89.26,0,0,1-8.23,44c-14.84,31.78-28.65,64-42.93,96-7.39,16.56-20.3,24.84-38.36,24.89-31,.09-62,0-93,.05-14.77,0-27.29-5.1-37.59-15.71q-7.44-7.66-15.07-15.16a11.3,11.3,0,0,1-3.6-8.65c.08-38.51,0-77,.17-115.51,0-2.61,1-6.06,2.8-7.69,28.22-25.5,48.74-57.15,70.67-87.67,5.54-7.71,11.19-15.35,16.52-23.21,7.19-10.59,16.77-16.15,29.66-13.61s19.94,11.58,23.48,23.65c2.42,8.24,1.4,16.3-1.79,24.19-5.62,13.88-11.15,27.8-16.71,41.7C1005.59,487.21,1005.31,488.15,1004.79,489.64Z" transform="translate(-799.97 -396.15)"/><path d="M855.79,591.72c0,17.75.13,35.51,0,53.26-.13,12.72-8.68,23.22-21,26.44a27.26,27.26,0,0,1-30.8-13,28.5,28.5,0,0,1-3.7-12.74q-.43-53.82-.09-107.65c.11-15.21,12.84-26.83,28.16-26.68a27.46,27.46,0,0,1,27.41,27.11c.22,17.76,0,35.51,0,53.27Z" transform="translate(-799.97 -396.15)"/>
    </symbol>
    <symbol id="takui-ico-contribute" viewBox="0 0 95.02 81.82">
        <path d="M88.5,60.2a108.31,108.31,0,0,1-11.8,3.2c-1.7,2.8-4.8,5.1-9.7,6a37.1,37.1,0,0,1-3.8.4c-3.4.1-7.4-.3-11.8-.6a2.77,2.77,0,0,1-.9-.1,2.25,2.25,0,0,1-2.1-2,2.06,2.06,0,0,1,2.3-2.3c.3,0,.7.1,1,.1,5.7.5,11.1,1,14.5.3,6.3-1.2,8.1-5,7.7-8.2a5.22,5.22,0,0,0-5.4-4.9,105.88,105.88,0,0,1-14.7-.4,95.51,95.51,0,0,0-16-.1c-4.7.5-14.2,4-22.6,9.7-4.1,2.8-8.7,6.1-11.5,8.2a3.07,3.07,0,0,0-.6,4.4L15.3,89.7a3.16,3.16,0,0,0,4.4.6l4.5-3.5a4.17,4.17,0,0,1,3.7-.7,101.17,101.17,0,0,0,22.7,4.6c12.5.6,36.6-14.2,43.5-19S96.1,57.4,88.5,60.2Z" transform="translate(-2.43 -9.1)"/><path d="M39.1,30.5H61.3v7.3a3.22,3.22,0,0,0,5.1,2.6L84.7,27.6a3.28,3.28,0,0,0,0-5.3L66.3,9.7a3.24,3.24,0,0,0-5.1,2.6v7.3H39.1a2.26,2.26,0,0,0-2.3,2.3v6.2A2.23,2.23,0,0,0,39.1,30.5Z" transform="translate(-2.43 -9.1)"/>
    </symbol>
	<symbol id="takui-ico-location" viewBox="0 0 651.64 965.82">
		<path d="M512,23.27c-179.94,0-325.82,145.88-325.82,325.82,0,143.15,206.24,420.61,290.54,518.54a46.42,46.42,0,0,0,65.46,5.1,45.48,45.48,0,0,0,5.1-5.1c84.3-97.93,290.54-375.39,290.54-518.54C837.82,169.15,691.94,23.27,512,23.27m0,69.82c141.15,0,256,114.85,256,256,0,96.14-143.31,316.07-256,452.1-112.69-136-256-356-256-452.1,0-141.15,114.85-256,256-256m0,93.09A139.64,139.64,0,1,1,372.36,325.82,139.64,139.64,0,0,1,512,186.18ZM512,256a69.82,69.82,0,1,0,69.82,69.82A69.91,69.91,0,0,0,512,256Zm0,733.09c-151.32,0-314.18-40.05-314.18-128,0-22.9,11.66-56,67.16-83.34q10.78-5.34,23.51-10.24a34.91,34.91,0,0,1,25.18,65.12q-9,3.45-17.76,7.7c-21,10.38-27.67,19.18-28.34,21.41,4.84,14.9,87.36,57.53,244.43,57.53s239.59-42.63,244.43-58.83c-.95-1.93-11.14-14.08-44.12-27a34.9,34.9,0,0,1,25.55-65h0c73,28.67,88.32,66.21,88.32,92.65C826.18,949,663.32,989.09,512,989.09Z" transform="translate(-186.18 -23.27)"/>
	</symbol>
	<symbol id="takui-ico-calendar-2" viewBox="0 0 95 86.2">
		<path d="M85.4,14.5H77.1v-3a4.65,4.65,0,0,0-4.6-4.6H69.2a4.65,4.65,0,0,0-4.6,4.6v3H35.3v-3a4.65,4.65,0,0,0-4.6-4.6H27.4a4.65,4.65,0,0,0-4.6,4.6v3H14.6A12.08,12.08,0,0,0,2.5,26.6V81A12.08,12.08,0,0,0,14.6,93.1H69.3a12.63,12.63,0,0,0,9-3.7L93.8,73.9A12.57,12.57,0,0,0,97.5,65V26.7A12.1,12.1,0,0,0,85.4,14.5ZM14.6,85.6A4.65,4.65,0,0,1,10,81V38.9H90V65a3,3,0,0,1-.2,1H78.1a7.81,7.81,0,0,0-7.8,7.8V85.4a3.55,3.55,0,0,1-1,.2Z" transform="translate(-2.5 -6.9)"/>
		<circle cx="21" cy="45.6" r="5.3"/>
		<circle cx="38.6" cy="45.6" r="5.3"/>
		<circle cx="56.2" cy="45.6" r="5.3"/>
		<circle cx="73.8" cy="45.6" r="5.3"/>
		<circle cx="21" cy="64.5" r="5.3"/>
		<circle cx="38.6" cy="64.5" r="5.3"/>
		<circle cx="56.2" cy="64.5" r="5.3"/>
	</symbol>
	<symbol id="takui-ico-timer" viewBox="0 0 96 94.25">
		<path d="M74.88,44.46,65.74,55.87A8.07,8.07,0,1,1,56.63,49a7.85,7.85,0,0,1,2.27,0l11.41-9.14a3.25,3.25,0,0,1,4.57,4.57Zm-33,28.21a4.13,4.13,0,0,0-4.13-4.13H20.38a4.13,4.13,0,0,0,0,8.26H37.74a4.13,4.13,0,0,0,4.13-4.13h0ZM94.09,28.32a5.5,5.5,0,0,0,1.62-3.13,5.19,5.19,0,0,0-4.49-5.81,4.86,4.86,0,0,0-1.32,0A5.5,5.5,0,0,0,86.77,21l-4.28,4.28A40,40,0,0,0,63,17.12V13.23h3.73a5.34,5.34,0,0,0,5.39-4.66,5.2,5.2,0,0,0-4.65-5.68l-.47,0H48.91a5.34,5.34,0,0,0-5.39,4.66,5.19,5.19,0,0,0,4.65,5.67,4.36,4.36,0,0,0,.51,0h4v3.88a40.27,40.27,0,0,0-18.53,7.46,5.17,5.17,0,0,0,6.11,8.33A29.83,29.83,0,1,1,42.1,82.2a5.18,5.18,0,0,0-6.72,1h0a5.16,5.16,0,0,0,1.15,7.68A39.87,39.87,0,0,0,64,96.66,40.3,40.3,0,0,0,98,57.42a39.75,39.75,0,0,0-8.22-24.78Zm-56.35,19a4.13,4.13,0,1,0,0-8.26H6.13a4.13,4.13,0,0,0,0,8.26Zm0,6.47H13.9a4.13,4.13,0,0,0,0,8.26H37.74a4.13,4.13,0,0,0,0-8.26Z" transform="translate(-2 -2.87)"/>
	</symbol>
	<symbol id="takui-ico-play-circle-background" viewBox="0 0 76 76">
		<path d="M50,12A38,38,0,1,0,88,50,38,38,0,0,0,50,12ZM39,32,69,50,39,68Z" transform="translate(-12 -12)"/>
	</symbol>
	<symbol id="takui-ico-three-dot" viewBox="0 0 69.6 15.2">
		<defs>
			<style>.cls-1{fill:#231f20;}</style>
		</defs>
		<circle class="cls-1" cx="7.6" cy="7.6" r="7.6"/>
		<circle class="cls-1" cx="34.8" cy="7.6" r="7.6"/>
		<circle class="cls-1" cx="62" cy="7.6" r="7.6"/>
	</symbol>
    <symbol id="takui-ico-hcp" viewBox="0 0 437 513">    
        <path d="M219,242.7c66.4,0,120.3-54,120.3-120.3S285.4,2,219,2S98.7,56,98.7,122.4S152.6,242.7,219,242.7z M219,30.2 c50.8,0,92.1,41.3,92.1,92.1s-41.3,92.1-92.1,92.1s-92.1-41.3-92.1-92.1S168.2,30.2,219,30.2z"/>
        <path d="M338.8,278.2h-69.1c-5.2,0-10,2.9-12.5,7.5l-38.2,72l-38.2-72c-2.4-4.6-7.2-7.5-12.5-7.5H99.2 c-52.9,0-96,43.1-96,96v121.6c0,7.8,6.3,14.1,14.1,14.1h403.5c7.8,0,14.1-6.3,14.1-14.1V374.2C434.8,321.3,391.8,278.2,338.8,278.2 z M406.6,481.8H31.4V374.2c0-28.1,17.2-52.2,41.5-62.5c3,14.7,9.7,37.5,24.4,63.4c-6.4,7.3-10.3,16.8-10.3,27.3 c0,22.9,18.6,41.5,41.5,41.5s41.5-18.6,41.5-41.5s-18.6-41.5-41.5-41.5c-2.2,0-4.4,0.2-6.6,0.6c-12.9-22.7-18.7-42.6-21.3-55h59.2 l46.7,87.9c6,9.8,19.2,10.3,24.9,0l46.7-87.9h60.6c3.1,0,6.1,0.3,9.1,0.7c-3.4,10.8-9.5,23.7-14.5,33.1 c-26.9-2.7-59.3,21.6-80.6,62.7c-1.4,2.8-1.9,5.9-1.4,9l3.3,18.6c1.4,7.7,8.7,12.8,16.4,11.4c7.7-1.4,12.8-8.7,11.4-16.4l-2.4-13.8 c18.7-33.5,44-47.7,53.9-42.6c5,2.6,8,11,8.1,22.5c0,13.7-4.2,30.3-11.7,46.1l-12.7,6c-7,3.3-10.1,11.7-6.8,18.8 c3.7,6.7,11.1,10.1,18.8,6.8l17.1-8c2.8-1.3,5.1-3.5,6.5-6.3c11-21.3,17-43.8,17-63.4c-0.1-16.1-4.3-29.1-11.9-38.2 c4.9-9.3,11.8-23.4,16.1-36.7c19.2,12,32.1,33.3,32.1,57.5v107.5H406.6z M115.2,402.4c0-7.3,6-13.3,13.3-13.3s13.3,6,13.3,13.3 s-6,13.3-13.3,13.3C121.2,415.7,115.2,409.8,115.2,402.4z"/>      
    </symbol>
    <symbol id="takui-ico-patient" viewBox="0 0 436 511">
        <path d="M218,242.7c66.4,0,120.3-54,120.3-120.3S284.4,2,218,2S97.7,56,97.7,122.4S151.6,242.7,218,242.7z M218,30.2
		c50.8,0,92.1,41.3,92.1,92.1s-41.3,92.1-92.1,92.1s-92.1-41.3-92.1-92.1S167.2,30.2,218,30.2z"/>
	    <path d="M337.8,278.2h-69.1c-5.2,0-10,2.9-12.5,7.5l-38.2,72l-38.2-72c-2.4-4.6-7.2-7.5-12.5-7.5H98.2
		c-52.9,0-96,43.1-96,96v121.6c0,7.8,6.3,14.1,14.1,14.1h403.5c7.8,0,14.1-6.3,14.1-14.1V374.2C433.8,321.3,390.8,278.2,337.8,278.2
		z M405.5,481.8H30.4V374.2c0-62.4,69.2-67.7,69.2-67.7h59.2l46.7,87.9c6,9.8,19.2,10.3,24.9,0l46.7-87.9h60.6
		c43.7,0,67.8,43.6,67.8,67.8V481.8z"/>
    </symbol>
    <symbol id="takui-ico-download" viewBox="0 0 16 16">
        <path d="M.5 9.9a.5.5 0 0 1 .5.5v2.5a1 1 0 0 0 1 1h12a1 1 0 0 0 1-1v-2.5a.5.5 0 0 1 1 0v2.5a2 2 0 0 1-2 2H2a2 2 0 0 1-2-2v-2.5a.5.5 0 0 1 .5-.5z"/>
        <path d="M7.646 11.854a.5.5 0 0 0 .708 0l3-3a.5.5 0 0 0-.708-.708L8.5 10.293V1.5a.5.5 0 0 0-1 0v8.793L5.354 8.146a.5.5 0 1 0-.708.708l3 3z"/>
    </symbol>
    <symbol id="takui-ico-microphone" viewBox="0 0 8.5 7.2">
       <defs><clipPath id="a"><path d="M0 0h8.5v7.2H0zm0 0"/></clipPath></defs><g clip-path="url(#a)"><path d="M6 3.6c-.2 0-.3 0-.3.2 0 .8-.7 1.4-1.5 1.4-.7 0-1.4-.6-1.4-1.4 0-.1-.1-.2-.3-.2-.1 0-.2 0-.2.2A2 2 0 004 5.8v1h-.6c-.1 0-.2 0-.2.2s.1.3.2.3H5a.3.3 0 000-.6h-.5v-1A2 2 0 006.2 4c0-.2 0-.3-.2-.3M4.1.9c.4 0 .7.2.7.6v2.2c0 .3-.3.6-.7.6a.6.6 0 01-.6-.6V1.5c0-.4.3-.6.6-.6M6.5.5c-.2 0-.3.1-.3.3v.1a1.5 1.5 0 010 1.8l.1.3c.2.1.3 0 .4 0a2 2 0 000-2.4h-.2M2 .5h-.2a2 2 0 000 2.4H2c.1 0 .2-.2.1-.3a1.5 1.5 0 010-1.8V.6H2M4.2.2c-.6 0-1.1.6-1.1 1.2v2.2c0 .6.5 1.2 1.1 1.2.7 0 1.2-.6 1.2-1.2V1.5C5.4.9 4.9.3 4.2.3M7.8 0c-.2 0-.3.1-.3.3v.1a2.9 2.9 0 01.1 2.8l.1.3h.4A3.4 3.4 0 008 0L7.7 0M.7 0L.4.1a3.4 3.4 0 000 3.3c0 .1.2.2.3.1.2 0 .2-.2.2-.3A2.9 2.9 0 01.9.4V0H.6"/></g>
    </symbol>
    <symbol id="takui-ico-file-four-lines" viewBox="0 0 96 136">
        <defs><clipPath id="clipPath80"><path d="m0 102h72v-102h-72z"/></clipPath></defs><g transform="matrix(1.3333 0 0 -1.3333 0 136)"><g stroke-miterlimit="10" stroke-width="2"><path d="m11 21h50v-5h-50z"/><path d="m11 36h50v-5h-50z"/><path d="m11 51h50v-5h-50z"/><path d="m11 66h50v-5h-50z"/></g><g transform="translate(6,6)"><path d="m0 0v90h40v-20h20v-70zm52.93 75h-7.93v7.93zm7.07 0-20 20h-45v-100h70v75z"/></g><g clip-path="url(#clipPath80)"><g transform="translate(6,6)"><path d="m0 0v90h40v-20h20v-70zm52.93 75h-7.93v7.93zm7.07 0-20 20h-45v-100h70v75z" stroke-miterlimit="10" stroke-width="2"/></g></g></g>
    </symbol>
    <symbol id="takui-ico-edit" viewBox="0 0 105.4 105.4">
        <defs><clipPath id="a"><path d="M0 79h79V0H0z"/></clipPath></defs><g clip-path="url(#a)" transform="matrix(1.3333 0 0 -1.3333 0 105.4)"><path d="M77 79H46a2 2 0 01-2-2v-8c0-1.1 1-2 2-2h12.5l-26-25a2 2 0 010-3l5.7-5.6a2 2 0 012.8 0l26 25.1v-12c0-1.1 1-2 2-2h8a2 2 0 012 2V77a2 2 0 01-2 2z"/><path d="M77 34h-8c-1 0-2-.8-2-1.9V12H12V67H32c1 0 2 1 2 2v8c0 1.1-.9 2-2 2H2c-.5 0-1-.2-1.3-.5v-.1c-.4-.3-.6-.8-.6-1.3V1.8C0 1.4.2 1 .5.6h.1C1 .1 1.4 0 2 0H77c.5 0 1 .2 1.3.5.4.4.6.8.6 1.3v30.3a2 2 0 01-2 1.9"/></g>
	</symbol>
    <symbol id="takui-ico-mortarboard" viewBox="0 0 122.69 74.656">
        <g transform="matrix(1.3333 0 0 -1.3333 0 74.656)"><g clip-path="url(#clipPath23)"><g transform="translate(70.008 25.281)"><path d="m0 0-22.906-9.063c-0.695-0.272-1.493-0.272-2.188 0l-22.906 9.063v-12.281c0 0.391 0.017-0.157 1.031-1 1.015-0.844 2.769-1.878 5-2.781 4.463-1.808 10.879-3.219 17.969-3.219s13.507 1.411 17.969 3.219c2.231 0.903 3.985 1.937 5 2.781 0.76 0.633 0.978 1.096 1.031 1.125zm-24 24.5-34.844-13.781 34.844-13.75 34.844 13.75zm1.094 6.031 43-17c1.119-0.434 1.914-1.596 1.914-2.797 0-1.2-0.795-2.362-1.914-2.797l-3.094-1.218v-11.063c1.199-0.919 2-2.333 2-3.937 0-2.732-2.269-5-5-5s-5 2.268-5 5c0 1.604 0.801 3.018 2 3.937v8.688l-5-1.969v-14.656c0-2.486-1.477-4.202-3.187-5.625-1.711-1.424-3.914-2.646-6.563-3.719-5.298-2.146-12.382-3.656-20.25-3.656s-14.952 1.51-20.25 3.656c-2.649 1.073-4.852 2.295-6.563 3.719-1.71 1.423-3.187 3.139-3.187 5.625v14.656l-14.094 5.562c-1.119 0.435-1.914 1.597-1.914 2.797 0 1.201 0.795 2.363 1.914 2.797l43 17c0.81 0.297 1.665 0.176 2.188 0"/></g></g></g>
    </symbol>
    <symbol id="takui-ico-event" viewBox="0 0 448 512">
        <path d="M0 464c0 26.5 21.5 48 48 48h352c26.5 0 48-21.5 48-48V192H0v272zm64-192c0-8.8 7.2-16 16-16h288c8.8 0 16 7.2 16 16v64c0 8.8-7.2 16-16 16H80c-8.8 0-16-7.2-16-16v-64zM400 64h-48V16c0-8.8-7.2-16-16-16h-32c-8.8 0-16 7.2-16 16v48H160V16c0-8.8-7.2-16-16-16h-32c-8.8 0-16 7.2-16 16v48H48C21.5 64 0 85.5 0 112v48h448v-48c0-26.5-21.5-48-48-48z" class=""></path>
    </symbol>
    <symbol id="takui-ico-funnel" viewBox="0 0 512 512">
        <path d="M487.976 0H24.028C2.71 0-8.047 25.866 7.058 40.971L192 225.941V432c0 7.831 3.821 15.17 10.237 19.662l80 55.98C298.02 518.69 320 507.493 320 487.98V225.941l184.947-184.97C520.021 25.896 509.338 0 487.976 0z" class=""></path>
    </symbol>
    <symbol id="takui-ico-remove" viewBox="0 0 120 120">
        <defs><clipPath id="clipPath191"><path d="m0 90h90v-90h-90z"/></clipPath></defs><g transform="matrix(1.3333 0 0 -1.3333 0 120)"><g clip-path="url(#clipPath191)"><g transform="translate(66.317 36.474)"><path d="m0 0h-42.632c-4.689 0-8.526 3.837-8.526 8.526s3.837 8.526 8.526 8.526h42.633c4.687 0 8.524-3.837 8.524-8.526s-3.837-8.526-8.525-8.526m10.503 40.345c-8.499 8.5-19.8 13.181-31.819 13.181-12.021 0-23.32-4.681-31.82-13.181-8.498-8.498-13.181-19.798-13.181-31.819s4.683-23.321 13.181-31.819c8.5-8.5 19.799-13.181 31.82-13.181 12.019 0 23.32 4.681 31.819 13.181 8.5 8.498 13.18 19.799 13.18 31.819s-4.68 23.321-13.18 31.819"/></g></g></g>
    </symbol>
    <symbol id="takui-ico-li-podcast" viewBox="0 0 11 16">
        <path d="m10.5 7c0.276 0 0.5 0.2235 0.5 0.5 0 2.864-2.201 5.2205-5 5.4745v2.0255h2c0.276 0 0.5 0.2235 0.5 0.5s-0.224 0.5-0.5 0.5h-5c-0.276 0-0.5-0.2235-0.5-0.5s0.224-0.5 0.5-0.5h2v-2.0255c-2.799-0.254-5-2.6105-5-5.4745 0-0.2765 0.224-0.5 0.5-0.5s0.5 0.2235 0.5 0.5c0 2.4815 2.019 4.5 4.5 4.5 2.481 0 4.5-2.0185 4.5-4.5 0-0.2765 0.224-0.5 0.5-0.5zm-5-7c1.93 0 3.5 1.5705 3.5 3.5v4c0 1.9295-1.57 3.5-3.5 3.5-1.93 0-3.5-1.5705-3.5-3.5v-4c0-1.9295 1.57-3.5 3.5-3.5zm0 1c-1.2075 0-2.217 0.8605-2.4495 2h0.9495c0.276 0 0.5 0.2235 0.5 0.5s-0.224 0.5-0.5 0.5h-1v1h1c0.276 0 0.5 0.2235 0.5 0.5s-0.224 0.5-0.5 0.5h-1v1h1c0.276 0 0.5 0.2235 0.5 0.5s-0.224 0.5-0.5 0.5h-0.9495c0.2325 1.1395 1.242 2 2.4495 2s2.217-0.8605 2.4495-2h-0.9495c-0.276 0-0.5-0.2235-0.5-0.5s0.224-0.5 0.5-0.5h1v-1h-1c-0.276 0-0.5-0.2235-0.5-0.5s0.224-0.5 0.5-0.5h1v-1h-1c-0.276 0-0.5-0.2235-0.5-0.5s0.224-0.5 0.5-0.5h0.9495c-0.2325-1.1395-1.242-2-2.4495-2z"/>
    </symbol>
    <symbol id="takui-ico-li-image" viewBox="0 0 16 12">
        <path d="m3.5 3c0.276 0 0.5 0.224 0.5 0.5s-0.224 0.5-0.5 0.5-0.5-0.224-0.5-0.5 0.224-0.5 0.5-0.5m0 2c0.827 0 1.5-0.673 1.5-1.5s-0.673-1.5-1.5-1.5-1.5 0.673-1.5 1.5 0.673 1.5 1.5 1.5m10.5 6h-12c-0.046 0-0.09-0.0075-0.134-0.0135l5.209-5.2045 3.5715 3.5715c0.1955 0.1955 0.5115 0.1955 0.707 0s0.1955-0.5115 0-0.707l-1.6465-1.6465 3.293-3.293 2 2v4.293c0 0.5515-0.4485 1-1 1zm-13-9c0-0.5515 0.4485-1 1-1h12c0.5515 0 1 0.4485 1 1v2.293l-1.6465-1.6465c-0.1955-0.1955-0.5115-0.1955-0.707 0l-3.6465 3.6465-1.5715-1.5715c-0.195-0.195-0.5115-0.195-0.707 0l-5.6495 5.645c-0.045-0.1135-0.072-0.2365-0.072-0.3665zm13-2h-12c-1.103 0-2 0.897-2 2v8c0 1.107 0.924 2 2 2h12c1.103 0 2-0.897 2-2v-8c0-1.103-0.897-2-2-2z"/>
    </symbol>
    <symbol id="takui-ico-li-cme" viewBox="0 0 42.712 31.789">
        <path d="m32.048 25.146c-0.0013 0.4258-0.19996 0.81728-0.55588 1.0855-1.3837 1.0308-4.4977 2.8039-10.156 3.0022-0.22928 0.0089-0.45324 0.01271-0.67452 0.01271-5.3842-0.0051-8.5368-2.2459-9.9365-3.5208l-0.02399-0.02288 0.02399 0.02288c-0.35059-0.32284-0.54788-0.77279-0.54922-1.2672v-6.5688l9.6406 4.3521c0.54788 0.24658 1.1331 0.35844 1.7143 0.35844 0.59187 0 1.1864-0.11694 1.741-0.37114l8.7768-4.0432zm-29.37-13.51 0.014664-0.02034 0.19329-0.13092 0.00133-0.0013 18.164-8.816h0.0013c0.1533-0.074992 0.37325-0.1271 0.59854-0.12586 0.23062-0.00125 0.45724 0.053407 0.61054 0.13221l17.575 8.8096c0.12797 0.06482 0.1773 0.11948 0.19729 0.1449l-0.01866 0.02415-0.20796 0.13473-1.749 0.80584c-0.40258-0.06228-0.92514-0.14236-1.5437-0.23769-2.1755-0.33556-5.4548-0.8427-8.2449-1.2838-1.3944-0.21989-2.6674-0.42326-3.6179-0.58087-0.47456-0.07753-0.86915-0.1449-1.1518-0.19574-0.1413-0.02415-0.25594-0.04576-0.33326-0.06101l-0.08132-0.01652-0.0067-0.0013-0.0013 0.0064c-0.69052-0.18557-1.4144 0.1754-1.6317 0.83254-0.22262 0.66857 0.1653 1.3829 0.86781 1.5952l0.21595 0.05338c0.23462 0.04957 0.61587 0.11566 1.1598 0.20845 2.1595 0.36225 6.6932 1.0702 10.182 1.6104l-11.76 5.4172c-0.15197 0.07118-0.36526 0.11948-0.58121 0.11823-0.21196 0.0012-0.42258-0.04451-0.57321-0.11442l-18.044-8.1461c-0.1533-0.069907-0.21329-0.13346-0.23462-0.16142zm39.58-1.4134c-0.2906-0.41436-0.70118-0.74992-1.1797-0.98887l-17.576-8.8109c-0.58521-0.29107-1.2197-0.42199-1.8503-0.42326-0.61454 0.001271-1.2344 0.12456-1.8089 0.40292l-18.165 8.816h0.00133c-0.49056 0.23768-0.9118 0.57324-1.2104 0.99142-0.29994 0.4169-0.46923 0.91897-0.46791 1.4248-0.0013252 0.5224 0.1813 1.0397 0.49723 1.4642 0.31593 0.42707 0.7585 0.7639 1.2731 0.99523l5.7388 2.5904v7.7737c-0.00133 1.1516 0.47323 2.2777 1.3664 3.0975 1.7183 1.5901 5.5828 4.2364 11.785 4.2326 0.25328 0 0.51056-0.0051 0.7705-0.01399 6.22-0.20845 9.9459-2.2154 11.708-3.5462 0.99046-0.73975 1.5757-1.8761 1.5743-3.0823v-8.1881l2.6661-1.2291v5.8786c0 0.70162 0.59721 1.271 1.333 1.271s1.333-0.56943 1.333-1.271v-7.1064l0.92114-0.42453c0.50789-0.23387 0.9438-0.56943 1.2557-0.99396 0.31193-0.42199 0.49056-0.93549 0.48924-1.4541 0.0013-0.49825-0.16397-0.99269-0.45458-1.4058z"/>
    </symbol>
    <symbol id="takui-ico-li-article" viewBox="0 0 34.4 42">
        <path d="m27.233 33.6c0.79263 0 1.4333 0.6258 1.4333 1.4s-0.6407 1.4-1.4333 1.4h-20.067c-0.79263 0-1.4333-0.6258-1.4333-1.4s0.6407-1.4 1.4333-1.4zm0-5.6c0.79263 0 1.4333 0.6258 1.4333 1.4s-0.6407 1.4-1.4333 1.4h-20.067c-0.79263 0-1.4333-0.6258-1.4333-1.4s0.6407-1.4 1.4333-1.4zm0-5.6c0.79263 0 1.4333 0.6258 1.4333 1.4s-0.6407 1.4-1.4333 1.4h-20.067c-0.79263 0-1.4333-0.6258-1.4333-1.4s0.6407-1.4 1.4333-1.4zm0-5.6c0.79263 0 1.4333 0.6258 1.4333 1.4s-0.6407 1.4-1.4333 1.4h-20.067c-0.79263 0-1.4333-0.6258-1.4333-1.4s0.6407-1.4 1.4333-1.4zm-8.6-5.6c0.79263 0 1.4333 0.6258 1.4333 1.4s-0.6407 1.4-1.4333 1.4h-11.467c-0.79263 0-1.4333-0.6258-1.4333-1.4s0.6407-1.4 1.4333-1.4zm0-5.6c0.79263 0 1.4333 0.6258 1.4333 1.4s-0.6407 1.4-1.4333 1.4h-11.467c-0.79263 0-1.4333-0.6258-1.4333-1.4s0.6407-1.4 1.4333-1.4z"/><path d="m2.8667 39.2v-36.4h20.067v7c0 0.7742 0.6407 1.4 1.4333 1.4h7.1667v28zm26.64-30.8h-3.7066v-3.6204zm4.4734 0.4102-8.6-8.4c-0.26373-0.2576-0.71093-0.4102-1.0134-0.4102h-22.933c-0.79263 0-1.4333 0.6258-1.4333 1.4v39.2c0 0.7742 0.6407 1.4 1.4333 1.4h31.533c0.79263 0 1.4333-0.6258 1.4333-1.4v-30.8c0-0.3248-0.16627-0.742-0.41997-0.9898z"/>
    </symbol>
    <symbol id="takui-ico-li-lock" viewBox="0 0 30.458 42">
        <path d="m17.674 34.125h-4.8896l0.84652-4.9612c0.06853-0.40556-0.05912-0.81769-0.34801-1.1169-0.47835-0.49481-0.74036-1.1327-0.74036-1.7968 0-1.4477 1.2053-2.625 2.6874-2.625 1.4807 0 2.6874 1.1773 2.6874 2.625 0 0.66412-0.2647 1.302-0.74171 1.7968-0.28889 0.29925-0.41788 0.71137-0.34801 1.1169zm-2.4441-13.125c-2.9641 0-5.3747 2.3546-5.3747 5.25 0 1.1091 0.36011 2.1774 1.0252 3.0712l-1.0078 5.901c-0.064496 0.38062 0.045685 0.76912 0.29964 1.0631 0.2553 0.29531 0.63153 0.46462 1.0266 0.46462h8.0621c0.39504 0 0.76993-0.16931 1.0239-0.46462 0.25664-0.294 0.36682-0.6825 0.30098-1.0631l-1.0064-5.901c0.66512-0.89381 1.0252-1.9622 1.0252-3.0712 0-2.8954-2.4106-5.25-5.3747-5.25zm12.46 17.062c0 0.7245-0.62024 1.3125-1.3845 1.3125h-22.152c-0.76284 0-1.3845-0.588-1.3845-1.3125v-18.375c0-0.7245 0.62163-1.3125 1.3845-1.3125h22.152c0.76423 0 1.3845 0.588 1.3845 1.3125zm-19.383-28.875c0-3.6186 3.1054-6.5625 6.9223-6.5625s6.9223 2.9439 6.9223 6.5625v6.5625h-13.845zm17.998 6.5625h-1.3845v-6.5625c0-5.0649-4.3486-9.1875-9.6913-9.1875-5.3441 0-9.6913 4.1226-9.6913 9.1875v6.5625h-1.3845c-2.2899 0-4.1534 1.7666-4.1534 3.9375v18.375c0 2.1709 1.8635 3.9375 4.1534 3.9375h22.152c2.2899 0 4.1534-1.7666 4.1534-3.9375v-18.375c0-2.1709-1.8635-3.9375-4.1534-3.9375z"/>
    </symbol>
    <symbol id="takui-ico-li-video" viewBox="0 0 42.996 38.97">
        <path d="m34.015 29.159v-5.9531l6.0847-2.8457v12.421zm-3.0931-8.482v15.274h-27.829v-19.632h27.829zm-14.104-10.83c0.43152 1.3564 1.2294 2.5402 2.2981 3.4511h-4.5976c1.0687-0.91086 1.8665-2.0947 2.2995-3.4511zm-7.3938-7.0182c2.6963 0.00424 4.8785 2.1357 4.8829 4.7693-0.004344 2.6336-2.1866 4.7651-4.8829 4.7693-2.6977-0.004244-4.8785-2.1357-4.8829-4.7693 0.0043442-2.6336 2.1851-4.7651 4.8829-4.7693zm14.786 0c2.6977 0.00424 4.88 2.1357 4.8843 4.7693-0.0043 2.6336-2.1866 4.7651-4.8843 4.7693-2.6963-0.0042-4.8785-2.1357-4.8829-4.7693 0.0043-2.6336 2.1866-4.7651 4.8829-4.7693zm18.092 15.196c-0.43297-0.4526-1.06-0.75528-1.7594-0.75669-0.34608 0-0.7052 0.07638-1.0281 0.23054l-5.4997 2.5699v-5.2601c0-0.83448-0.69217-1.5106-1.5451-1.5106h-3.1655c1.6334-1.3918 2.6861-3.4157 2.6861-5.7-0.001448-4.1979-3.4826-7.5966-7.7804-7.5981-3.4898 0.0014144-6.4062 2.2574-7.3923 5.3492-0.98758-3.0918-3.904-5.3492-7.3938-5.3492-4.2964 0.0014144-7.779 3.4002-7.779 7.5981 0 2.2842 1.0527 4.3082 2.6847 5.7h-2.7832c-0.85435 0-1.5465 0.67608-1.5465 1.5106v22.653c0 0.83307 0.69217 1.5091 1.5465 1.5091h30.923c0.85291 0 1.5451-0.67607 1.5451-1.5091v-4.9885l5.2492 3.123c0.38084 0.22772 0.8225 0.34794 1.2497 0.34652 1.4148-0.01131 2.4791-1.1669 2.482-2.5289v-13.645c0.0014-0.66476-0.25921-1.2899-0.69362-1.7439z"/>
    </symbol>
    <symbol id="takui-ico-li-meeting" viewBox="0 0 42.996 38.97">
        <path d="m23.292 20.5c4.9476 0 8.9583 3.8242 8.9583 8.5417v3.4167c0 0.94349-0.80216 1.7083-1.7917 1.7083s-1.7917-0.76485-1.7917-1.7083v-3.4167c0-2.8305-2.4065-5.125-5.375-5.125h-14.333c-2.9685 0-5.375 2.2945-5.375 5.125v3.4167c0 0.94349-0.80216 1.7083-1.7917 1.7083-0.98951 0-1.7917-0.76485-1.7917-1.7083v-3.4167c0-4.7174 4.0108-8.5417 8.9583-8.5417zm10.807 1.5033c0.24738-0.91353 1.2246-1.4629 2.1827-1.227 3.9529 0.97315 6.7157 4.3714 6.7188 8.2653v3.4167c0 0.94349-0.80216 1.7083-1.7917 1.7083s-1.7917-0.76485-1.7917-1.7083v-3.4154c-0.0018-2.3356-1.6595-4.3745-4.0312-4.9584-0.95809-0.23587-1.5342-1.1676-1.2869-2.0812zm-17.974-22.003c4.9476 0 8.9583 3.8242 8.9583 8.5417 0 4.7174-4.0108 8.5417-8.9583 8.5417s-8.9583-3.8242-8.9583-8.5417c0-4.7174 4.0108-8.5417 8.9583-8.5417zm10.806 1.5067c0.24544-0.914 1.2215-1.4652 2.1801-1.2312 3.9639 0.96771 6.7363 4.3733 6.7363 8.2747 0 3.9014-2.7724 7.307-6.7363 8.2747-0.95859 0.23402-1.9346-0.31721-2.1801-1.2312-0.24544-0.914 0.33268-1.8447 1.2913-2.0787 2.3783-0.58062 4.0418-2.624 4.0418-4.9648 0-2.3409-1.6635-4.3842-4.0418-4.9648-0.95859-0.23402-1.5367-1.1647-1.2913-2.0787zm-10.806 1.91c-2.9685 0-5.375 2.2945-5.375 5.125 0 2.8305 2.4065 5.125 5.375 5.125s5.375-2.2945 5.375-5.125c0-2.8305-2.4065-5.125-5.375-5.125z"/>
    </symbol>
    <symbol id="takui-ico-li-poster" viewBox="0 0 31.533 37.55">
        <path d="m22.336 0c0.27723 0 0.68716 0.12989 0.92892 0.34916l7.8833 7.15c0.23256 0.21092 0.38497 0.56604 0.38497 0.84251v26.217c0 0.65899-0.58731 1.1917-1.3139 1.1917h-21.261l3.333e-4 0.7121c0 0.56538-0.70943 1.0305-1.6189 1.0833l-0.17275 5e-3c-0.99079-1.5e-5 -1.7917-0.48756-1.7917-1.0883v-0.7121h-4.0611c-0.68117 0-1.2399-0.46817-1.3071-1.0697l-0.0067731-0.12198v-33.367c0-0.65899 0.58731-1.1917 1.3139-1.1917zm-1.3139 2.3833h-18.394v30.983l2.7472-6.67e-4v-1.4224c0-0.56641 0.70943-1.0306 1.6189-1.0833l0.17275-5e-3c0.99079 0 1.7917 0.48645 1.7917 1.0883l-3.333e-4 1.4224 19.948 6.67e-4v-23.833h-6.5694c-0.72658 0-1.3139-0.53268-1.3139-1.1917zm3.715 16.683c0.41668 0 0.79777 0.17335 1.0021 0.4575 0.20317 0.28415 0.19399 0.62817-0.02525 0.90428l-5.341 6.758c-0.20547 0.25913-0.56475 0.41908-0.95618 0.42444-0.39142 0.0054-0.75759-0.14386-0.97569-0.39674l-1.5714-1.83-3.2668 4.9834c-0.19628 0.30024-0.58886 0.48788-1.0205 0.48788-0.43275 0-0.82647-0.18765-1.0239-0.48699l-6.5704-10.002c-0.18136-0.27611-0.16415-0.60851 0.043619-0.87211 0.20776-0.26539 0.57967-0.42801 0.97913-0.42801zm-7.4761 1.7871h-9.3735l4.6925 7.144zm5.4225 0h-2.8456l-1.7803 2.7173c0.01377 0.0143 0.03444 0.02055 0.04591 0.03574l1.2512 1.4565zm2.2802-6.5538c0.72658 0 1.3139 0.53268 1.3139 1.1917 0 0.65899-0.58731 1.1917-1.3139 1.1917h-18.394c-0.72658 0-1.3139-0.53268-1.3139-1.1917 0-0.65899 0.58731-1.1917 1.3139-1.1917zm-7.8833-4.7667c0.72658 0 1.3139 0.53267 1.3139 1.1917s-0.58731 1.1917-1.3139 1.1917h-10.511c-0.72658 0-1.3139-0.53268-1.3139-1.1917s0.58731-1.1917 1.3139-1.1917zm0-4.7667c0.72658 0 1.3139 0.53268 1.3139 1.1917 0 0.65899-0.58731 1.1917-1.3139 1.1917h-10.511c-0.72658 0-1.3139-0.53268-1.3139-1.1917 0-0.65899 0.58731-1.1917 1.3139-1.1917zm6.5694-0.69832v3.0816h3.3977z"/>
    </symbol>
    <symbol id="takui-ico-li-clock" viewBox="0 0 18 18">
        <path d="M8.60517786,8.74838211 L8.60517786,5.70224763 C8.60517786,5.44647594 8.39843293,5.23973101 8.14266124,5.23973101 C7.88688954,5.23973101 7.68014461,5.44647594 7.68014461,5.70224763 L7.68014461,8.93986399 C7.68014461,9.06289341 7.72870886,9.18037263 7.81566198,9.26686324 L10.1282451,11.5794464 C10.2184358,11.6696371 10.3368401,11.7149637 10.4552443,11.7149637 C10.5736486,11.7149637 10.6920529,11.6696371 10.7822436,11.5794464 C10.9630876,11.3986024 10.9630876,11.1062918 10.7822436,10.9254478 L8.60517786,8.74838211 Z M8.631789,15.4965231 C4.84618127,15.4965231 1.76710767,12.4169215 1.76710767,8.6318418 C1.76710767,4.84676213 4.84618127,1.76716048 8.631789,1.76716048 C12.4168687,1.76716048 15.4964703,4.84676213 15.4964703,8.6318418 C15.4964703,12.4169215 12.4168687,15.4965231 8.631789,15.4965231 M8.631789,0.711055658 C4.26426752,0.711055658 0.711002853,4.26432032 0.711002853,8.6318418 C0.711002853,12.9993633 4.26426752,16.5526279 8.631789,16.5526279 C12.9993105,16.5526279 16.5525751,12.9993633 16.5525751,8.6318418 C16.5525751,4.26432032 12.9993105,0.711055658 8.631789,0.711055658" id="path-1"></path>
    </symbol>
    <symbol id="takui-ico-li-webinar" viewBox="0 0 43 35.021">
        <path d="m2.6934 0c-0.090684 0-0.18769 7.6347e-4 -0.29102 0.0078125-0.55708 0.037704-1.0726 0.22737-1.4805 0.54688-0.40842 0.31852-0.70639 0.76791-0.83398 1.291-0.080739 0.3318-0.082804 0.64808-0.083984 0.92578-0.0026969 1.8114-0.0019531 3.6225-0.0019531 5.4336v3.7187 0.21484c-1.6856e-4 2.2281-0.0019531 4.4551-0.0019531 6.6836 0 3.0206 0.002111 6.0414 0.011719 9.0625 0.003034 0.47835 0.083599 0.99892 0.3125 1.4688 0.11883 0.24196 0.27021 0.45351 0.44922 0.62695 0.26834 0.26114 0.59462 0.43255 0.93359 0.5332 0.33981 0.10131 0.69404 0.13656 1.0527 0.13672h0.013672c2.1439-0.0059 4.2894-0.007813 6.4336-0.007813 2.4122 0 4.8234 0.003206 7.2363 0.003906h0.023438v1.916c-0.53264-4.92e-4 -1.0615 0-1.5879 0-0.50432 0-1.007-3.27e-4 -1.5098 0.001953-0.35852 0.0015-0.69873 0.10586-0.95898 0.32422-0.12945 0.10852-0.23584 0.24467-0.30664 0.39844-0.07113 0.1536-0.10759 0.32332-0.10742 0.49414v0.023438c0.0029 0.17016 0.039864 0.33826 0.11133 0.49219 0.10602 0.23163 0.294 0.4241 0.51953 0.54492 0.2257 0.12196 0.48354 0.17757 0.75391 0.17773 2.7013 0.0011 5.4022 0.001953 8.1035 0.001953 2.7254 0 5.4522-5.08e-4 8.1777-0.001953 0.17951 0 0.35263-0.025175 0.51562-0.078125 0.2439-0.07869 0.46565-0.22673 0.61719-0.43164 0.15271-0.20409 0.22757-0.45637 0.22656-0.70898v-0.033203c-4e-3 -0.16836-0.038413-0.33581-0.10938-0.49023-0.10484-0.23262-0.29588-0.42642-0.52344-0.54297-0.22806-0.11836-0.48506-0.16861-0.75391-0.16992-0.4396-0.0018-0.87944-0.001953-1.3184-0.001953h-1.7832v-1.918h0.060547 0.076172 7.4414c2.0375 0 4.0736-2.81e-4 6.1113-0.001953 0.40336-3.28e-4 0.77993-0.055004 1.1211-0.16992 0.51124-0.17049 0.94365-0.4862 1.2285-0.91406 0.28655-0.42737 0.424-0.9495 0.42383-1.5254 0.0022-4.1056 0.003906-8.2109 0.003906-12.316 0-4.3609-8.06e-4 -8.7231-0.003906-13.084-3.37e-4 -0.38999-0.060547-0.75222-0.18359-1.0801-0.18255-0.49163-0.51988-0.90079-0.96875-1.1641-0.44853-0.26508-0.99163-0.38884-1.5898-0.38867h-11.67c-8.5615 0-17.122-1.6393e-4 -25.684 0h-0.20703zm0.085938 2.459h18.592 18.848c0.12456-3.279e-4 0.21163 0.0085651 0.25781 0.017578 0.0019 0.00967 0.00406 0.017316 0.00586 0.03125 0.0064 0.045081 0.011889 0.1104 0.011719 0.19531 8.42e-4 2.8485 0 5.6982 0 8.5469 0 3.8553-0.001459 7.7111-0.001953 11.566h-37.986v-12.932-7.1426c0-0.12737 0.0083041-0.21774 0.017578-0.26758 0.010788-0.0018 0.018033-0.0040594 0.033203-0.0058594 0.05141-0.00607 0.12776-0.0097656 0.22266-0.0097656zm18.701 1.9473c-1.1636-4.913e-4 -2.3321 0.38551-3.2812 1.1699-0.5114 0.42229-0.93373 0.90982-1.2422 1.459-0.3088 0.549-0.50178 1.1586-0.56836 1.8145-0.01989 0.19557-0.03125 0.38992-0.03125 0.58008-5.06e-4 0.79506 0.17685 1.5411 0.51953 2.2148 0.24154 0.47573 0.56557 0.913 0.95898 1.3125-1.3655 0.71408-2.4603 1.6307-3.2324 2.7637-0.81565 1.1947-1.2683 2.6178-1.3477 4.2402-0.0019 0.039509-0.001953 0.07866-0.001953 0.11719 1.69e-4 0.18196 0.021588 0.35784 0.080078 0.52734 0.04366 0.12672 0.10921 0.25038 0.19922 0.35742 0.13468 0.16213 0.32101 0.27867 0.51367 0.34375 0.19367 0.06639 0.39521 0.089353 0.60742 0.089843 2.3141 0.0026 4.6273 0.003907 6.9414 0.003907 2.2438 0 4.4886-0.001607 6.7324-0.003907 0.19435-4.92e-4 0.37848-0.018502 0.55664-0.070312 0.13316-0.03885 0.2626-0.097875 0.37891-0.18164 0.1758-0.12459 0.30983-0.30674 0.38281-0.49805 0.0745-0.19229 0.0991-0.39222 0.09961-0.60156 0-0.03443-5.96e-4 -0.068272-0.001953-0.10352-0.04838-1.2142-0.32473-2.3416-0.83984-3.3555-0.51461-1.0142-1.2659-1.9132-2.2422-2.6777-0.48123-0.37557-0.99536-0.67212-1.4805-0.95703 0.44145-0.4613 0.77547-0.95035 1.0098-1.4531 0.31402-0.67228 0.45134-1.3641 0.45117-2.0273-1.6e-4 -0.70982-0.15694-1.3892-0.41602-1.9941-0.25958-0.60507-0.62248-1.1376-1.0508-1.5605-1.012-0.99785-2.3534-1.5101-3.6953-1.5098zm0.017578 2.4609h0.001953c0.73424 4.918e-4 1.3838 0.28445 1.8574 0.74805 0.47247 0.46458 0.76334 1.1042 0.76367 1.8281v0.0058594c-0.0015 0.71195-0.2977 1.3539-0.77539 1.8223-0.47837 0.46753-1.131 0.75358-1.8516 0.75391h-0.013672c-0.73087-0.0044-1.3724-0.28946-1.8418-0.75781-0.46825-0.46917-0.75808-1.1188-0.75977-1.8574v-0.0019531-0.0019531c3.38e-4 -0.70277 0.29147-1.3339 0.76562-1.7949 0.47483-0.46015 1.1265-0.74316 1.8535-0.74414zm-0.017578 7.6855c1.608 6.55e-4 2.9734 0.62924 3.9727 1.5625 0.84835 0.79212 1.4164 1.8039 1.6191 2.8008h-11.146c0.06051-0.34147 0.17374-0.70072 0.3418-1.0605 0.37807-0.81261 1.0229-1.6197 1.8672-2.2266 0.84548-0.60786 1.8842-1.0179 3.0742-1.0703 0.09102-0.0039 0.18181-0.00586 0.27148-0.00586zm-18.965 10.756h37.975c6.74e-4 0.45376 0.001953 0.90403 0.001954 1.3516 0 0.50622-0.003566 1.0096-0.009766 1.5117-0.01062 0.0021-0.021533 0.004859-0.039063 0.005859-0.10855 0.0062-0.22622 0.00586-0.34961 0.00586-4.2082 1.64e-4 -8.4168 0-12.625 0-8.1858 0-16.371 0.001272-24.557 0-0.10113 3.28e-4 -0.18696 0.004206-0.25 0.003906-0.037083 1.49e-4 -0.061944-0.002006-0.078125-0.003906-0.016856-0.01492-0.041708-0.042153-0.054688-0.064453l-0.0058594-0.011719c-0.010788-0.45737-0.015625-0.91664-0.015625-1.377 0-0.47245 0.0051125-0.94648 0.0078125-1.4219zm16.518 5.3613h4.9395v1.8809h-4.9395v-1.8809z"></path>
    </symbol>
    <symbol id="takui-ico-li-presentation" viewBox="0 0 43.627 37.551">
        <path d="m33.734 23.399c0.94753 0 1.7124 0.58107 1.7124 1.2999s-0.76484 1.2999-1.7124 1.2999h-23.972c-0.94617 0-1.7124-0.58107-1.7124-1.2999s0.7662-1.2999 1.7124-1.2999zm0-5.1998c0.94753 0 1.7124 0.58107 1.7124 1.2999s-0.76484 1.2999-1.7124 1.2999h-23.972c-0.94617 0-1.7124-0.58107-1.7124-1.2999s0.7662-1.2999 1.7124-1.2999zm-8.947-5.1998c0.6176 0 1.1166 0.58108 1.1166 1.2999 0 0.71887-0.49899 1.2999-1.1166 1.2999h-15.621c-0.6176 0-1.1152-0.58107-1.1152-1.2999 0-0.71887 0.49762-1.2999 1.1152-1.2999zm-20.697 16.593h35.447v-18.887h-35.447zm-1.182-21.794h37.81v-5.1998h-37.81zm18.139 27.768c-0.74712 0-1.3552-0.57977-1.3552-1.2908 0-0.71237 0.60806-1.2921 1.3552-1.2921 0.74575 0 1.3552 0.57977 1.3552 1.2921 0 0.71107-0.60942 1.2908-1.3552 1.2908zm21.127-35.568h-40.719c-0.80302 0-1.4547 0.58237-1.4547 1.2999v7.7997c0 0.69027 0.60533 1.2401 1.3634 1.2843v20.663c0 0.80206 0.61078 1.452 1.3634 1.452h15.443c-0.34902 0.51348-0.55761 1.1218-0.55761 1.7783 0 1.8056 1.5406 3.2746 3.4357 3.2746 1.8937 0 3.4343-1.4689 3.4343-3.2746 0-0.65647-0.20723-1.2648-0.55761-1.7783h16.976c0.75257 0 1.3634-0.64997 1.3634-1.452v-20.663c0.75802-0.0442 1.3634-0.59407 1.3634-1.2843v-7.7997c0-0.71757-0.65168-1.2999-1.4533-1.2999z" fill-rule="evenodd"/>
    </symbol>
    <symbol id="takui-ico-li-like" viewBox="0 0 23.694 21.761">
        <path d="m22.043 11.073c-0.95326 2.6862-2.521 6.7418-3.0217 7.3457-0.94142 1.1363-2.3338 1.7877-3.8241 1.7877h-4.4749c-1.1934 0-2.3772-0.38629-3.3345-1.0881l-0.47545-0.34976v-10.536l3.5272-6.1985c0.11136-0.21996 0.30564-0.37852 0.54574-0.44692 0.24167-0.068398 0.49045-0.035753 0.70448 0.091715 0.28748 0.17099 0.45018 0.48189 0.42411 0.81222l-0.43043 5.4788c-0.01738 0.2153 0.05844 0.42904 0.20771 0.5876 0.15006 0.15934 0.36014 0.2495 0.5797 0.2495h7.837c0.57812 0 1.1065 0.26193 1.45 0.71973 0.34356 0.45702 0.44386 1.0314 0.28511 1.5459zm-16.71 9.1334h-3.753v-11.399h3.753v10.351zm17.695-11.605c-0.64446-0.85652-1.6356-1.3485-2.72-1.3485h-6.984l0.36488-4.6409c0.07266-0.9187-0.38067-1.7861-1.1815-2.2626-0.58602-0.34898-1.3008-0.44147-1.961-0.25571-0.65868 0.18732-1.2131 0.64123-1.5022 1.2141l-3.385 5.9451h-4.869c-0.43675 0-0.78978 0.34743-0.78978 0.77724v12.954c0 0.42982 0.35303 0.77724 0.78978 0.77724h5.3326c0.43596 0 0.78978-0.34743 0.78978-0.77724v-0.30468c1.1349 0.70107 2.4681 1.0819 3.8099 1.0819h4.4749c1.9666 0 3.8067-0.85963 5.0491-2.3605 0.85691-1.0353 2.889-6.6921 3.2973-7.8439 0.31749-1.0197 0.12873-2.097-0.51573-2.9551z"/>
    </symbol>
    <symbol id="takui-ico-li-bookmark" viewBox="0 0 16.989 20.408">
        <path d="m15.101 18.367-6.0405-3.2653c-0.168-0.09116-0.36715-0.13606-0.5663-0.13606-0.19915 0-0.39829 0.0449-0.5663 0.13606l-6.0405 3.2653v-17.007h13.214zm0.94383-18.367h-15.101c-0.52194 0-0.94383 0.30408-0.94383 0.68027v19.048c0 0.25782 0.20198 0.4932 0.52194 0.60884 0.31996 0.11429 0.70315 0.09048 0.98819-0.06463l6.9843-3.7755 6.9843 3.7755c0.16611 0.09048 0.3662 0.13605 0.5663 0.13605 0.14346 0 0.28881-0.02381 0.42189-0.07143 0.31996-0.11565 0.52194-0.35102 0.52194-0.60884v-19.048c0-0.37619-0.42189-0.68027-0.94383-0.68027z"/>
    </symbol>
    <symbol id="takui-ico-li-plus" viewBox="0 0 8.2133 8.2133">
        <path d="m4.1067-3e-8c0.28351 0 0.51333 0.22983 0.51333 0.51333v3.0797l3.08 3.334e-4c0.25201 0 0.4616 0.18159 0.50506 0.42106l0.00827 0.092272c1e-6 0.28351-0.22983 0.51333-0.51333 0.51333h-3.08v3.08c0 0.25201-0.18159 0.4616-0.42106 0.50506l-0.092272 0.00827c-0.28351 1e-6 -0.51333-0.22983-0.51333-0.51333l-3.334e-4 -3.08h-3.0797c-0.25201 0-0.4616-0.18159-0.50506-0.42106l-0.0082705-0.092272c0-0.28351 0.22983-0.51333 0.51333-0.51333l3.0797-3.334e-4 3.334e-4 -3.0797c0-0.25201 0.18159-0.4616 0.42106-0.50506z"/>
    </symbol> 
    <symbol id="takui-ico-external" viewBox="0 0 16.312 16.31">
        <path d="M181.926,2535.01h12.982a0.932,0.932,0,0,0,.927-0.93v-7.44h-1.854v6.51H182.853v-11.16h6.491v-1.85h-7.418a0.927,0.927,0,0,0-.928.93v13.01A0.933,0.933,0,0,0,181.926,2535.01Zm6.236-8.46,1.3,1.3,6-5.99v2.02h1.855v-5.19h-5.193v1.86h2.017Z" transform="translate(-181 -2518.69)"/>
    </symbol>
    <symbol id="takui-ico-instagram" viewBox="-2 -2 20 20">    
         <path d="M12.33 2.67a1 1 0 1 0 1 1 1 1 0 0 0-1-1zM8 5.33A2.67 2.67 0 1 1 5.33 8 2.68 2.68 0 0 1 8 5.33zM8 4a4 4 0 1 0 2.83 1.17A4 4 0 0 0 8 4zm5.33-4A2.66 2.66 0 0 1 16 2.67v10.66A2.66 2.66 0 0 1 13.33 16H2.67A2.66 2.66 0 0 1 0 13.33V2.67A2.66 2.66 0 0 1 2.67 0z" />
    </symbol>
     <symbol id="takui-ico-c-chevron" viewBox="0 0 14 20">
        <path d="M3.1 0L.8 2.4 8.4 10 .8 17.6 3.1 20l10-10z"/>
    </symbol>
    <symbol id="takui-ico-play" viewBox="0 0 20.6 22.4">
        <defs><filter id="a" x="39311" y="181.7" width="20.6" height="22.4" filterUnits="userSpaceOnUse"><feFlood result="flood" flood-color="#d61200"/><feComposite result="composite" operator="in" in2="SourceGraphic"/><feBlend result="blend" in2="SourceGraphic"/></filter></defs><path data-name="Play icon copy 8" d="M39311 204l20.6-11.1-20.6-11.2V204z" transform="translate(-39311 -181.7)"/>
    </symbol>
    <symbol id="takui-ico-c-search" viewBox="0 0 23.92 23.92">
      <path d="M4.85 4.85a6.37 6.37 0 0 0 0 9 6.364 6.364 0 0 0 9-9 6.37 6.37 0 0 0-9 0zm12.09 10l6.68 6.69c1.07 1.09-1 3.2-2.13 2.13l-6.69-6.71a9.35 9.35 0 1 1 2.14-2.14z"/>
    </symbol>
</defs>
</svg>
