<?xml version="1.0" encoding="utf-8"?>
<!-- Generator: Adobe Illustrator 25.0.1, SVG Export Plug-In . SVG Version: 6.00 Build 0)  -->
<svg version="1.0" id="Layer_1" xmlns="http://www.w3.org/2000/svg" xmlns:xlink="http://www.w3.org/1999/xlink" x="0px" y="0px"
	 viewBox="0 0 216 216" style="enable-background:new 0 0 216 216;" xml:space="preserve">
<style type="text/css">
	.st0{fill:#EE1100;}
	.st1{fill:#EE1100;stroke:#FFFFFF;stroke-width:0.5;stroke-miterlimit:10;}
	.st2{fill:none;stroke:#34373F;stroke-width:1.6798;}
	.st3{fill:#D0D2D5;}
	.st4{fill:none;stroke:#34373F;stroke-width:1.6798;stroke-miterlimit:10;}
	.st5{fill:none;stroke:#34373F;stroke-width:1.6798;stroke-linecap:round;stroke-miterlimit:10;}
	.st6{fill:#E1242A;}
	.st7{fill:none;stroke:#E1242A;stroke-width:1.6798;stroke-linecap:round;stroke-linejoin:round;}
	.st8{fill:#FFFFFF;}
	.st9{fill:none;stroke:#E1242A;stroke-width:1.6798;stroke-miterlimit:10;}
</style>
<g>
	<circle class="st2" cx="108" cy="108" r="60.47"/>
	<path class="st4" d="M88.53,128.45c0,0,4.99-7.96,19.47-7.96s19.47,7.96,19.47,7.96 M127.47,87.55c0,0-4.99,7.96-19.47,7.96
		s-19.47-7.96-19.47-7.96 M79.75,108h56.5 M108,79.75v56.5 M108,136.25c0,0-16.44-5.28-16.44-28.25S108,79.75,108,79.75 M108,79.75
		c0,0,16.44,5.28,16.44,28.25S108,136.25,108,136.25 M136.25,108c0,15.6-12.65,28.25-28.25,28.25S79.75,123.6,79.75,108
		S92.4,79.75,108,79.75S136.25,92.4,136.25,108z"/>
	<path class="st7" d="M68.31,99.89C72.07,81.42,88.41,67.52,108,67.52c19.03,0,35,13.12,39.35,30.81"/>
	<polygon class="st6" points="74.31,98.95 67.49,108.04 63.02,97.58 	"/>
	<path class="st7" d="M147.69,116.11c-3.77,18.47-20.11,32.37-39.69,32.37c-19.55,0-35.86-13.84-39.67-32.26"/>
	<polygon class="st6" points="141.69,117.05 148.51,107.96 152.98,118.42 	"/>
</g>
</svg>
