<svg xmlns="http://www.w3.org/2000/svg" viewBox="0 0 500 500"><title>RAR_RGB_Black</title><g id="Icons"><path d="M443.79,157.24c-5.06-5.06-15.17-5.06-21.91,0-5.05,5-13.48,11.79-20.22,15.16L325.83,96.57A79.24,79.24,0,0,1,341,76.35c5.05-5,5.05-15.16,0-21.9s-15.17-5.06-21.91,0C298.87,74.67,277,110.05,283.7,150.5c-70.77-8.43-139.86,65.72-131.44,134.8-35.38-5.05-70.77,10.12-96,35.39-5.05,5.06-5.05,15.17,0,21.91,5.06,5,15.17,5,21.91,0s13.48-11.8,20.22-15.17l75.83,75.83A79.24,79.24,0,0,1,159,423.48c-5.05,5.06-6.74,16.85,0,21.91,10.12,8.42,18.54,3.37,21.91,0,28.65-28.65,40.44-64,35.39-96.05,69.09,10.11,141.55-59,131.44-131.44,32,5.06,69.08-6.74,96.05-35.39C448.84,174.09,448.84,164,443.79,157.24ZM260.11,310.58l-70.77-70.77c1.68-6.74,6.74-11.8,10.11-18.54l79.2,79.2C271.91,303.84,266.85,308.9,260.11,310.58ZM221.35,199.36c5.06-3.37,11.8-8.42,18.54-10.11L310.66,260c-1.68,6.74-6.74,11.79-10.11,18.53ZM186,369.56,130.36,314C165.74,308.9,189.34,334.17,186,369.56Zm-3.37-94.37,42.12,42.13C199.45,315.64,184.28,300.47,182.6,275.19ZM317.4,223l-42.12-42.13C298.87,182.51,315.72,199.36,317.4,223ZM314,130.28l55.61,53.92C332.57,189.25,309,165.66,314,130.28Z"/></g></svg>