<?xml version="1.0" encoding="utf-8"?>
<!-- Generator: Adobe Illustrator 25.0.1, SVG Export Plug-In . SVG Version: 6.00 Build 0)  -->
<svg version="1.0" id="Layer_1" xmlns="http://www.w3.org/2000/svg" xmlns:xlink="http://www.w3.org/1999/xlink" x="0px" y="0px"
	 viewBox="0 0 216 216" style="enable-background:new 0 0 216 216;" xml:space="preserve">
<style type="text/css">
	.st0{fill:#EE1100;}
	.st1{fill:#EE1100;stroke:#FFFFFF;stroke-width:0.5;stroke-miterlimit:10;}
	.st2{fill:none;stroke:#34373F;stroke-width:1.6798;}
	.st3{fill:#D0D2D5;}
	.st4{fill:none;stroke:#34373F;stroke-width:1.6798;stroke-miterlimit:10;}
	.st5{fill:none;stroke:#34373F;stroke-width:1.6798;stroke-linecap:round;stroke-miterlimit:10;}
	.st6{fill:#E1242A;}
	.st7{fill:none;stroke:#E1242A;stroke-width:1.6798;stroke-linecap:round;stroke-linejoin:round;}
	.st8{fill:#FFFFFF;}
	.st9{fill:none;stroke:#E1242A;stroke-width:1.6798;stroke-miterlimit:10;}
</style>
<g>
	<circle class="st2" cx="108" cy="108" r="60.47"/>
	<path class="st8" d="M140.45,82.46c0,6.96-5.64,12.59-12.59,12.59c-6.96,0-12.59-5.64-12.59-12.59c0-6.96,5.64-12.59,12.59-12.59
		C134.81,69.86,140.45,75.5,140.45,82.46"/>
	<circle class="st4" cx="127.86" cy="82.46" r="12.59"/>
	<path class="st8" d="M148.07,117.06c0-9.84-9.36-17.78-20.78-17.51c-11.01,0.26-19.64,8.33-19.64,17.87v6.59
		c0,3.05,2.86,5.53,6.38,5.53h27.67c3.52,0,6.38-2.47,6.38-5.53V117.06z"/>
	<path class="st4" d="M148.07,117.06c0-9.84-9.36-17.78-20.78-17.51c-11.01,0.26-19.64,8.33-19.64,17.87v6.59
		c0,3.05,2.86,5.53,6.38,5.53h27.67c3.52,0,6.38-2.47,6.38-5.53V117.06z"/>
	<path class="st3" d="M121.32,87.4c0,6.96-5.64,12.59-12.59,12.59c-6.96,0-12.59-5.64-12.59-12.59c0-6.96,5.64-12.59,12.59-12.59
		C115.68,74.8,121.32,80.44,121.32,87.4"/>
	<circle class="st4" cx="108.72" cy="87.4" r="12.59"/>
	<path class="st3" d="M128.94,122c0-9.84-9.36-17.78-20.78-17.51c-11.01,0.26-19.64,8.33-19.64,17.87v6.59
		c0,3.05,2.86,5.53,6.38,5.53h27.67c3.52,0,6.38-2.47,6.38-5.53V122z"/>
	<path class="st4" d="M128.94,122c0-9.84-9.36-17.78-20.78-17.51c-11.01,0.26-19.64,8.33-19.64,17.87v6.59
		c0,3.05,2.86,5.53,6.38,5.53h27.67c3.52,0,6.38-2.47,6.38-5.53V122z"/>
	<path class="st8" d="M104.1,92.34c0,6.96-5.64,12.59-12.59,12.59s-12.59-5.64-12.59-12.59c0-6.96,5.64-12.59,12.59-12.59
		S104.1,85.38,104.1,92.34"/>
	<circle class="st4" cx="91.5" cy="92.34" r="12.59"/>
	<path class="st6" d="M111.71,126.94c0-9.84-9.36-17.78-20.78-17.51c-11.01,0.26-19.64,8.33-19.64,17.87v6.59
		c0,3.05,2.86,5.53,6.38,5.53h27.67c3.52,0,6.38-2.47,6.38-5.53V126.94z"/>
	<path class="st8" d="M97.72,81.39c0,0-5.36,10.82-18.82,10.95"/>
	<path class="st4" d="M97.72,81.39c0,0-5.36,10.82-18.82,10.95"/>
	<path class="st8" d="M94.73,85.47c0,0,3.98,4.77,9.2,4.82"/>
	<path class="st4" d="M94.73,85.47c0,0,3.98,4.77,9.2,4.82"/>
	<polyline class="st8" points="85.08,110.34 91.5,124.42 97.99,110.34 	"/>
	<polyline class="st4" points="85.08,110.34 91.5,124.42 97.99,110.34 	"/>
	<path class="st4" d="M111.71,126.94c0-9.84-9.36-17.78-20.78-17.51c-11.01,0.26-19.64,8.33-19.64,17.87v6.59
		c0,3.05,2.86,5.53,6.38,5.53h27.67c3.52,0,6.38-2.47,6.38-5.53V126.94z"/>
</g>
</svg>
