<?xml version="1.0" encoding="utf-8"?>
<!-- Generator: Adobe Illustrator 19.1.0, SVG Export Plug-In . SVG Version: 6.00 Build 0)  -->
<svg version="1.1" id="Layer_1" xmlns="http://www.w3.org/2000/svg" xmlns:xlink="http://www.w3.org/1999/xlink" x="0px" y="0px"
	 viewBox="0 0 172.3 58" style="enable-background:new 0 0 172.3 58;" xml:space="preserve">
<style type="text/css">
	.st0{fill:#FFFFFF;}
	.st1{fill:none;stroke:#FFFFFF;stroke-width:2.0354;}
	.st2{fill:#E4412B;}
</style>
<g>
	<g>
		<g>
			<g>
				<path class="st0" d="M18.4,39.1c-1.9,2.6-3.5,5.7-5.2,8.5L1.5,39.9C23.9,13.9,54.6,1,85.8,1c31.7,0,64.6,14.8,85,38.7l-11.6,7.9
					c-2.1-3.2-3.3-6.6-5.5-9.5c0,1.1,0.6,16.4-15.4,18.9L34,56.9C18.8,55.2,18.7,39.3,18.4,39.1 M151.9,38.5c0,0,0-3.3-2.5-5.5
					c-14.6-17.4-36-30.1-63.2-30.1C60.7,2.9,39.4,13.5,23,33.7c-2.5,2.4-2.1,5.8-2.1,5.8c0.4,4.7,3,13.2,14.6,14.3h101.8
					C149.6,52.7,151.6,43.4,151.9,38.5z"/>
				<path class="st1" d="M18.4,39.1c-1.9,2.6-3.5,5.7-5.2,8.5L1.5,39.9C23.9,13.9,54.6,1,85.8,1c31.7,0,64.6,14.8,85,38.7l-11.6,7.9
					c-2.1-3.2-3.3-6.6-5.5-9.5c0,1.1,0.6,16.4-15.4,18.9L34,56.9C18.8,55.2,18.7,39.3,18.4,39.1 M151.9,38.5c0,0,0-3.3-2.5-5.5
					c-14.6-17.4-36-30.1-63.2-30.1C60.7,2.9,39.4,13.5,23,33.7c-2.5,2.4-2.1,5.8-2.1,5.8c0.4,4.7,3,13.2,14.6,14.3h101.8
					C149.6,52.7,151.6,43.4,151.9,38.5z"/>
				<path class="st2" d="M18.4,39.1c-1.9,2.6-3.5,5.7-5.2,8.5L1.5,39.9C23.9,13.9,54.6,1,85.8,1c31.7,0,64.6,14.8,85,38.7l-11.6,7.9
					c-2.1-3.2-3.3-6.6-5.5-9.5c0,1.1,0.6,16.4-15.4,18.9L34,56.9C18.8,55.2,18.7,39.3,18.4,39.1 M151.9,38.5c0,0,0-3.3-2.5-5.5
					c-14.6-17.4-36-30.1-63.2-30.1C60.7,2.9,39.4,13.5,23,33.7c-2.5,2.4-2.1,5.8-2.1,5.8c0.4,4.7,3,13.2,14.6,14.3h101.8
					C149.6,52.7,151.6,43.4,151.9,38.5z"/>
				<path class="st0" d="M152.1,38.4c0,0,0-3.3-2.5-5.5C135,15.5,113.6,2.8,86.4,2.8c-25.6,0-47,10.5-63.4,30.7
					c-2.8,2.7-2.3,5.9-2.3,5.9c0.4,4.7,2.8,13.5,14.8,14.6h101.7C149.6,52.8,151.8,43.2,152.1,38.4"/>
				<path class="st2" d="M68.4,39.4c1-1.4,1.6-2.5,3.3-5.8l4.1-9.2h4.8l-4.3,9.4l-0.8,1.7l7.2-4.4h4.9l-8.2,5.5l0.5,1.7
					c0,0,0.9,3.1,1.1,3.2c0,0,0.3,1.5,2.8,0.4c0,0,2.4-0.8,2.9-1.2c0,0-2.2-5.6,7.2-9.7c0,0,5.9-2,7.6,1c0,0,1,1.8-0.8,3.7
					c0,0-0.6,1-3.5,2.5c-1.8,0.9-2.8,1.4-4.2,2.2c0,0-0.8,0.4-1,0.5c0.1,0.2,0.7,0.9,1.3,1.2c0,0,2.3,1.6,7-0.7c0,0,3.1-1.8,4.1-3.5
					c1.2-3,4.9-6.8,8.8-6.9c1.8-0.1,2.8-0.3,4.5,1.7l0.1,0c0.2-0.7,0.7-1.2,1-1.9l3.1-6.2h4.3l-7.6,15.7c0,0-1.3,2.3,1.7,1.4
					c0,0,1.7-0.9,2.2-2.1c0.3-0.5,0.5-0.8,0.6-0.9c1.6-3.8,4.7-7.1,9-7.3c0.7,0,3.3-0.3,4.2,1.7l0.7-1l0.2-0.6h4.1l-4.5,9.4
					c0,0-0.2,1.1,0.4,1.4c0,0,1,0.9,4.5-2.1c0,0,0.5,0.5,1,1.5c0,0-1.2,1.1-1.9,1.5c-2.6,2.1-5,2-5,2c-3.1,0.2-3.7-2.4-3.7-2.4v0.1
					c-1.3,1.5-3.5,2.2-5.3,2.2c-2.3,0-3.8-1.9-4.1-3.3c-2.1,2.4-5.6,3-5.6,3c-3.5,0.2-3.9-1.7-3.9-1.7L113,43
					c-1.6,1.3-2.3,1.4-3.9,1.6c-3,0.5-5.1-1.8-5.3-3.5c-2,1.8-5.9,3.1-5.9,3.1c-3.1,1.2-6.4,0.6-6.4,0.6c-2.1-0.3-4.1-2.3-4.1-2.3
					c-3,1.2-5.5,2-5.5,2c-2.8,1-3.6,0.4-3.6,0.4c-0.8,0-1.2-1.1-1.2-1.1l-1.4-5.2l-2.7,1.5l-2.1,4.5h-4.7l1.1-2.2
					c-3.3,2.2-5.6,2.3-5.6,2.3c-3.5,0.4-3.2-2.2-3.2-2.2L58,42.8c-2.3,1.6-3.3,2-5.2,2c-5.6,0-4.2-5.1-3.5-7
					c1.2-2.9,4.3-6.1,8.7-6.4c0.8-0.1,2.8-0.1,4.3,1.2l0.3-0.4l0.4-0.9h4.4l-4.7,9.9c0,0-0.3,0.8,0.5,0.7
					C63.9,42,66.4,40.4,68.4,39.4 M41.1,44.6l8-16.7h7.7l1.6-3.5H37.1l-1.6,3.5h8l-8,16.7H41.1z M111,41.7c1.1-0.1,3.5-1.9,4.3-4.1
					c0.9-2.2,0.5-4.1-1.1-4.1c-1.6,0-4.4,2.5-5.2,4.8C107.8,42.3,110.4,41.7,111,41.7z M56.6,41.4c1.9-0.6,3.2-3.7,3.8-4.8
					c1.1-2.1,0.1-3.4-2.1-3c-1.7,0.3-3.7,2.6-4.2,4.2C52.3,43.4,57.1,41.2,56.6,41.4z M93.7,37.7c4.2-2.3,3.8-3.9,3.8-3.9
					c0-1.8-1.6-1.1-1.6-1.1c-3.1,1.1-3.8,3.7-3.8,3.7c-0.2,0.6-0.5,2.3-0.5,2.3C92.3,38.5,93.7,37.7,93.7,37.7z M130.7,41.5
					c1.6-0.4,3.3-3.1,3.6-4.3c0.9-2.6,0.3-3.9-2-3.5c-1.7,0.3-3.6,2.7-4.2,4.2C126.3,43.5,131.1,41.3,130.7,41.5z"/>
			</g>
		</g>
	</g>
</g>
</svg>
